<?xml version="1.0" encoding="utf-8"?>
<svg version="1.1" id="Layer_1" xmlns="http://www.w3.org/2000/svg" xmlns:xlink="http://www.w3.org/1999/xlink" x="0px" y="0px"
	 viewBox="0 0 80 80" style="enable-background:new 0 0 80 80;" xml:space="preserve">
<style type="text/css">
	.st0{clip-path:url(#SVGID_00000027602903265071019690000013989308546926596244_);}
	.st1{fill:#FF558B;}
	.st2{fill:#FFFFFF;}
	.st3{fill:#FFD200;}
	.st4{fill:#006658;}
	.st5{fill:#FF2A2A;}
	.st6{fill:#009CF7;}
</style>
<g>
	<defs>
		<rect id="SVGID_1_" width="80" height="80"/>
	</defs>
	<clipPath id="SVGID_00000082341856217230345510000010557839065395173541_">
		<use xlink:href="#SVGID_1_"  style="overflow:visible;"/>
	</clipPath>
	<g style="clip-path:url(#SVGID_00000082341856217230345510000010557839065395173541_);">
		<path d="M68,73.5c0,0.2,0.4,0.2,0.4,0c-0.1-1.1,0.5-2,1.6-2.4c0.8-0.3,1.6,0,1.8,0.9c0.1,0.4,0.1,0.7,0,1.1c0,0,0,0,0,0
			c-0.3,0-0.7,0.1-1,0.2c-0.2,0.1-0.6,0.3-0.6,0.6c-0.1,0.3,0.3,0.6,0.6,0.6c0.3,0.1,0.7-0.1,0.9-0.4c0.2-0.2,0.3-0.4,0.4-0.6
			c0.1,0,0.1,0,0.2,0c0.7,0.2,1.3,0.8,1.4,1.5c0.1,0.6-0.4,1-1,1.1c-0.2-0.2-0.3-0.4-0.6-0.5c-0.4-0.3-0.9-0.1-1.1,0.4
			c0,0.1,0,0.1,0,0.2c0.4,0.3,0.9,0.4,1.4,0.4c0.2,0.3,0.2,0.6,0.2,0.9c-0.1,0.5-0.5,1-1.1,1.1c-1.1,0.2-2.1-0.9-2.4-1.8
			c-0.1-0.2-0.4-0.1-0.4,0.1c0.3,0.7,0.8,1.4,1.5,1.8c0.6,0.3,1.3,0.4,1.9,0.1c0.6-0.4,1-1.1,0.8-1.8c0-0.2-0.1-0.4-0.2-0.5
			c0.1,0,0.2-0.1,0.3-0.1c0.8-0.4,1-1.1,0.7-1.9c-0.3-0.7-0.9-1.2-1.6-1.3c0.1-0.3,0.1-0.6,0-1c-0.1-0.5-0.4-1.1-0.9-1.3
			c-0.5-0.2-1-0.2-1.5-0.1C68.7,71.2,67.9,72.3,68,73.5z M72.1,76.2c-0.3,0-0.5-0.1-0.7-0.2C71.6,75.8,71.9,76,72.1,76.2z
			 M71.6,73.5C71.6,73.5,71.6,73.6,71.6,73.5c-0.2,0.3-0.4,0.6-0.7,0.6c-0.1,0-0.3,0-0.4-0.1c-0.1-0.1-0.1-0.1,0-0.1
			c0.2-0.2,0.5-0.3,0.7-0.3C71.4,73.5,71.5,73.5,71.6,73.5z"/>
		<path d="M67.7,74.5L67.7,74.5l-6.7,0c-0.1,0-0.2-0.1-0.2-0.2c0-0.1,0.1-0.2,0.2-0.2h0l6.7,0c0.1,0,0.2,0.1,0.2,0.2
			C67.9,74.4,67.9,74.5,67.7,74.5z"/>
		<path d="M67.6,76.3L67.6,76.3l-4.2,0c-0.1,0-0.2-0.1-0.2-0.2c0-0.1,0.1-0.2,0.2-0.2h0l4.2,0c0.1,0,0.2,0.1,0.2,0.2
			C67.8,76.2,67.7,76.3,67.6,76.3z"/>
		<path d="M24.2,49.5c-7,7.5-10.4,17.6-9.2,27.9c0.2,2.2,3.6,2,3.4-0.2c-1.1-9.5,1.9-18.5,8.4-25.4C28.2,50.2,25.7,47.9,24.2,49.5z"
			/>
		<path class="st1" d="M18.5,75c0,0,2.2-1.7-2.1-1.9c-4.6-0.2-1.7,1.8-1.7,1.8l-0.7,0.4c0,0-5-4-6.8-0.1c-1.9,3.9,3.5,4.6,6.8,4.7
			C17.1,79.9,20.6,80.7,18.5,75z"/>
		<path d="M16.1,80c-0.4,0-0.9,0-1.4,0c-0.3,0-0.6,0-1,0c-2.6-0.1-5.9-0.5-6.9-2.2C6.5,77,6.5,76.2,7,75.1c0.4-0.9,1.1-1.5,2-1.7
			c1.2-0.3,2.5,0.2,3.3,0.7c0.8,0.4,1.5,0.9,1.6,1l0.5-0.3c-0.3-0.2-1-0.8-0.8-1.2c0.2-0.5,1-0.7,2.7-0.6c1.6,0.1,2.6,0.3,2.7,0.9
			c0.2,0.5-0.3,1-0.5,1.1c0.8,2,0.9,3.4,0.3,4.2C18.3,79.8,17.3,80,16.1,80z M9.6,73.6c-0.2,0-0.4,0-0.7,0.1
			c-0.8,0.2-1.4,0.7-1.8,1.6c-0.5,1-0.5,1.8-0.1,2.5c0.4,0.7,1.9,2,6.8,2.1c0.3,0,0.6,0,1,0c1.7,0.1,3.3,0.1,3.9-0.8
			c0.5-0.7,0.4-2.1-0.3-4.1l0-0.1l0,0c0,0,0.6-0.5,0.5-1c-0.1-0.3-0.6-0.7-2.6-0.8c-1.9-0.1-2.4,0.2-2.5,0.5c-0.1,0.4,0.6,1,0.9,1.1
			l0.1,0.1l-0.9,0.5l0,0C13.8,75.3,11.6,73.6,9.6,73.6z"/>
		<path d="M17,75.3c-0.1,0-0.3,0-0.4,0l0-0.2c1.1,0.1,1.8-0.2,1.8-0.3l0.1,0.1C18.5,75,17.9,75.3,17,75.3z"/>
		<path d="M15.3,75.2c-0.1,0-0.3,0-0.8-0.2l0.1-0.1c0.5,0.2,0.7,0.2,0.7,0.2L15.3,75.2C15.4,75.2,15.4,75.2,15.3,75.2z"/>
		<path d="M13.9,75.2c0.2,0.1,0.3,0.2,0.4,0.3c0.1,0.1,0.3,0.2,0.4,0.3c0.1,0.1,0.2,0.2,0.4,0.4c0.1,0.1,0.2,0.3,0.3,0.4l0,0
			L14.6,76L13.9,75.2L13.9,75.2z"/>
		<path d="M13.9,75.2c0.1,0.1,0.1,0.3,0.1,0.4c0,0.1,0,0.3,0.1,0.4c0,0.1,0,0.3,0,0.4c0,0.1,0,0.3-0.1,0.4l0,0L14,76.1L13.9,75.2
			L13.9,75.2z"/>
		<path class="st2" d="M9.5,74.2c-0.1,0.1-0.3,0.2-0.4,0.3c-0.1,0-0.1,0.1-0.2,0.1c-0.1,0-0.1,0.1-0.2,0.2c-0.2,0.2-0.5,0.5-0.6,0.7
			c-0.2,0.3-0.3,0.6-0.3,0.9l0,0.1l0,0.1l0,0.2c0,0.2,0,0.3,0,0.5l0,0c0-0.2-0.1-0.3-0.1-0.5l0-0.3l0-0.1l0-0.1l0-0.2l0.1-0.2
			c0-0.1,0.1-0.2,0.1-0.2c0-0.1,0.1-0.2,0.1-0.2c0.2-0.3,0.4-0.6,0.7-0.8C8.9,74.4,9.2,74.3,9.5,74.2L9.5,74.2z"/>
		<path d="M53.4,68.3c-2.6,0.9-5.2,1.9-7.8,2.8c-2.5,0.8-5.4,1.6-8,1.1c-6.5-1.4-1-9.2,1-12.3c1.2-1.9-1.8-3.6-2.9-1.7
			c-2.8,4.5-7.9,12.5-1.4,16.3c6,3.6,14.3-0.8,20.1-2.9C56.4,70.9,55.5,67.6,53.4,68.3z"/>
		<path class="st1" d="M50,69.1c0,0-2.4-1.3-0.9,2.7c1.6,4.3,2.3,0.9,2.3,0.9l0.6,0.5c0,0-1.8,6.1,2.5,6.4c4.3,0.3,2.9-5,1.8-8
			C55.1,68.4,54.5,64.9,50,69.1z"/>
		<path d="M54.8,79.6c-0.1,0-0.2,0-0.3,0c-1-0.1-1.8-0.5-2.3-1.2c-0.7-1-0.7-2.4-0.6-3.3c0.1-0.9,0.3-1.7,0.3-1.9l-0.5-0.4
			c-0.1,0.3-0.3,1.2-0.8,1.2c-0.5,0-1-0.7-1.6-2.2c-0.6-1.5-0.6-2.5-0.2-2.9c0.4-0.3,1-0.1,1.2,0c1.6-1.5,2.8-2.1,3.7-1.9
			c1.2,0.3,1.7,1.8,2.3,3.4c0.1,0.3,0.2,0.6,0.3,0.9c0.9,2.4,1.8,5.7,0.6,7.2C56.5,79.3,55.8,79.6,54.8,79.6z M51.3,72.6l0.8,0.6
			l0,0.1c0,0-1,3.4,0.3,5.2c0.5,0.7,1.2,1,2.2,1.1c1.1,0.1,1.9-0.2,2.3-0.8c0.5-0.7,1.1-2.5-0.6-7.1c-0.1-0.3-0.2-0.6-0.3-0.9
			c-0.6-1.6-1.1-3.1-2.2-3.3c-0.9-0.2-2.1,0.4-3.6,1.9l0,0l0,0c0,0-0.7-0.4-1.1-0.1c-0.3,0.2-0.4,0.9,0.3,2.7
			c0.7,1.8,1.1,2.2,1.4,2.1c0.4,0,0.7-0.9,0.7-1.2L51.3,72.6z"/>
		<path d="M50.9,70.7c-0.3-1.1-0.9-1.6-0.9-1.6L50,69c0,0,0.6,0.6,1,1.7L50.9,70.7z"/>
		<path d="M51.4,72.7l-0.2,0c0-0.5-0.1-0.7-0.1-0.7l0.1-0.1C51.4,71.9,51.5,72.1,51.4,72.7z"/>
		<path d="M52,73.2c0-0.2,0-0.3,0.1-0.5c0-0.2,0.1-0.3,0.2-0.5c0.1-0.2,0.1-0.3,0.2-0.5c0.1-0.2,0.2-0.3,0.3-0.4l0,0l-0.4,1L52,73.2
			L52,73.2z"/>
		<path d="M52,73.2c0.1-0.1,0.2-0.2,0.3-0.3c0.1-0.1,0.2-0.1,0.4-0.2c0.1-0.1,0.3-0.1,0.4-0.2c0.1,0,0.3-0.1,0.4-0.1l0,0l-0.8,0.4
			L52,73.2L52,73.2z"/>
		<path class="st2" d="M52.7,77.7c0.1,0.1,0.3,0.2,0.4,0.3c0.1,0,0.1,0.1,0.2,0.1c0.1,0,0.1,0.1,0.2,0.1c0.3,0.1,0.6,0.2,0.9,0.3
			c0.3,0,0.6,0,0.9-0.1l0.1,0l0.1,0l0.2-0.1c0.2-0.1,0.3-0.1,0.5-0.2l0,0c-0.1,0.1-0.3,0.2-0.4,0.2l-0.2,0.1l-0.1,0l-0.1,0l-0.2,0.1
			l-0.2,0c-0.1,0-0.2,0-0.3,0c-0.1,0-0.2,0-0.3,0c-0.3,0-0.7-0.2-0.9-0.3C53.1,78.2,52.9,78,52.7,77.7L52.7,77.7z"/>
		<path d="M71.5,32.6c-0.1-0.4-0.7-0.2-0.6,0.2c0.3,1.6,0.5,3.2,0.4,4.7c-0.1,1.5-0.9,2.7-1.9,3.8c-0.9,1.1-1.8,2.1-2.4,3.4
			c-0.6,1.2-0.8,2.7-0.6,4c0.2,1.5,0.7,2.9,1.1,4.4c0.4,1.5,0.5,3,0.3,4.6c-0.2,1.3-0.7,2.5-1.8,3.4c-1,0.8-2.3,1.2-3.6,0.9
			c-1.5-0.4-2.9-1.3-4-2.4c-0.6-0.6-1.2-1.3-1.6-2c-0.5-0.7-0.8-1.5-1.1-2.3c-0.2-0.4-0.8-0.2-0.6,0.2c0.3,0.7,0.6,1.4,1,2.1
			c0.4,0.7,0.9,1.3,1.4,1.8c1,1.1,2.2,2,3.5,2.7c1.2,0.6,2.7,0.8,4,0.3c1.2-0.4,2.1-1.3,2.8-2.3c0.8-1.3,0.9-2.8,1-4.3
			c0-1.6-0.5-3.2-1-4.7c-0.5-1.6-0.8-3.1-0.4-4.8c0.3-1.5,1.3-2.8,2.3-4c1.1-1.2,2.2-2.6,2.4-4.2C72.1,36.3,71.8,34.5,71.5,32.6z"/>
		<path class="st3" d="M70.6,29.4l0.1,1.8l-0.5,0l-0.1-1.8c0,0,0-0.1,0.1-0.1L70.6,29.4C70.6,29.4,70.6,29.4,70.6,29.4z"/>
		<path d="M70.1,31.3l-0.1-1.9c0-0.1,0.1-0.1,0.1-0.1l0.4,0c0.1,0,0.1,0.1,0.1,0.1l0.1,1.9L70.1,31.3z M70.2,29.4l0,1.7l0.4,0l0-1.7
			L70.2,29.4z"/>
		<path class="st3" d="M71.9,29.4l0.1,1.8l-0.5,0l-0.1-1.8c0,0,0-0.1,0.1-0.1L71.9,29.4C71.9,29.3,71.9,29.3,71.9,29.4z"/>
		<path d="M71.4,31.2l-0.1-1.9c0,0,0-0.1,0-0.1c0,0,0.1,0,0.1,0l0.4,0c0.1,0,0.1,0.1,0.1,0.1v0l0.1,1.9L71.4,31.2z M71.5,29.4l0,1.7
			l0.4,0l0-1.7L71.5,29.4z"/>
		<path d="M69.6,30.7l0.1,2.6l2.8-0.1l-0.1-2.6L69.6,30.7z"/>
		<path d="M69.6,33.4l-0.1-2.8l3-0.1l0.1,2.8L69.6,33.4z M69.7,30.8l0.1,2.4l2.7-0.1l-0.1-2.4L69.7,30.8z"/>
		<path class="st3" d="M66.8,45.5c0,0.8-0.5,1.4-1.3,1.4c0,0-0.1,0-0.1,0c0,0,0,0,0,0c-0.2,0-0.4-0.1-0.6-0.1
			c-0.1,0-0.2-0.1-0.3-0.2c-0.3-0.2-0.5-0.6-0.5-1c0-0.3,0.1-0.7,0.3-0.9c0.2-0.3,0.6-0.5,1-0.5C66.1,44.2,66.7,44.7,66.8,45.5z"/>
		<path d="M65.4,47C65.4,47,65.4,47,65.4,47c-0.2,0-0.4-0.1-0.6-0.2c-0.1-0.1-0.2-0.1-0.3-0.2c-0.3-0.3-0.5-0.6-0.5-1
			c0-0.4,0.1-0.7,0.3-1c0.3-0.3,0.6-0.5,1.1-0.5c0.4,0,0.8,0.1,1,0.4c0.3,0.3,0.5,0.6,0.5,1C66.9,46.3,66.3,47,65.4,47
			C65.5,47,65.4,47,65.4,47z M65.4,44.3C65.4,44.3,65.4,44.3,65.4,44.3c-0.4,0-0.8,0.2-1,0.5c-0.2,0.2-0.3,0.6-0.3,0.9
			c0,0.4,0.2,0.7,0.5,0.9c0.1,0.1,0.2,0.1,0.3,0.2c0.2,0.1,0.4,0.1,0.5,0.1c0,0,0.1,0,0.1,0c0.7,0,1.3-0.6,1.2-1.4
			C66.7,44.8,66.1,44.3,65.4,44.3z"/>
		<path class="st3" d="M71.2,55.4c0,0.8-0.5,1.4-1.3,1.4c0,0-0.1,0-0.1,0c0,0,0,0,0,0c-0.2,0-0.4-0.1-0.6-0.1
			c-0.1,0-0.2-0.1-0.3-0.2c-0.3-0.2-0.5-0.6-0.5-1c0-0.3,0.1-0.7,0.3-0.9c0.2-0.3,0.6-0.5,1-0.5C70.5,54.1,71.1,54.6,71.2,55.4z"/>
		<path d="M69.8,56.9C69.8,56.9,69.8,56.9,69.8,56.9c-0.2,0-0.4-0.1-0.6-0.2c-0.1-0.1-0.2-0.1-0.3-0.2c-0.3-0.3-0.5-0.6-0.5-1
			c0-0.4,0.1-0.7,0.3-1c0.3-0.3,0.6-0.5,1.1-0.5c0.4,0,0.8,0.1,1,0.4c0.3,0.3,0.5,0.6,0.5,1c0,0.4-0.1,0.8-0.4,1
			C70.6,56.7,70.3,56.9,69.8,56.9C69.9,56.9,69.8,56.9,69.8,56.9z M69.8,54.2C69.8,54.2,69.8,54.2,69.8,54.2c-0.4,0-0.8,0.2-1,0.5
			c-0.2,0.2-0.3,0.6-0.3,0.9c0,0.4,0.2,0.7,0.5,0.9c0.1,0.1,0.2,0.1,0.3,0.2c0.2,0.1,0.4,0.1,0.5,0.1c0,0,0.1,0,0.1,0
			c0.3,0,0.7-0.2,0.9-0.4c0.2-0.3,0.3-0.6,0.3-0.9v0c0-0.3-0.2-0.7-0.4-0.9C70.4,54.3,70.1,54.2,69.8,54.2z"/>
		<path class="st3" d="M64.1,60.8c0,0.8-0.5,1.4-1.3,1.4c0,0-0.1,0-0.1,0c0,0,0,0,0,0c-0.2,0-0.4-0.1-0.6-0.1
			c-0.1,0-0.2-0.1-0.3-0.2c-0.3-0.2-0.5-0.6-0.5-1c0-0.3,0.1-0.7,0.3-0.9c0.2-0.3,0.6-0.5,1-0.5C63.4,59.4,64,60,64.1,60.8z"/>
		<path d="M62.7,62.3C62.7,62.3,62.7,62.3,62.7,62.3c-0.2,0-0.4-0.1-0.6-0.2c-0.1-0.1-0.2-0.1-0.3-0.2c-0.3-0.3-0.5-0.6-0.5-1
			c0-0.4,0.1-0.7,0.3-1c0.3-0.3,0.6-0.5,1.1-0.5c0.4,0,0.8,0.1,1,0.4c0.3,0.3,0.5,0.6,0.5,1v0c0,0.4-0.1,0.8-0.4,1
			C63.5,62.1,63.2,62.3,62.7,62.3C62.8,62.3,62.7,62.3,62.7,62.3z M62.7,59.6C62.7,59.6,62.7,59.6,62.7,59.6c-0.4,0-0.8,0.2-1,0.5
			c-0.2,0.2-0.3,0.6-0.3,0.9c0,0.4,0.2,0.7,0.5,0.9C62,61.9,62,62,62.1,62c0.2,0.1,0.4,0.1,0.5,0.1c0,0,0.1,0,0.1,0
			c0.3,0,0.7-0.2,0.9-0.4c0.2-0.3,0.3-0.6,0.3-0.9v0c0-0.3-0.2-0.7-0.4-0.9C63.3,59.7,63,59.6,62.7,59.6z"/>
		<path class="st4" d="M61.9,68c-4.6-0.7-9.4-1.5-14.4-2.5c-7.1-1.5-13.7-3.2-19.7-5l3.2-1.2l-8.8-1.5c1.3-0.2,3.3-0.3,4.5-0.7
			c-2.9-0.6-6.2-1.6-9.9-3.1c-4.3-1.7-7.9-3.7-10.7-5.6c1.5-0.4,3.4-1,5.4-2.1c1.2-0.7,2.2-1.4,3-2c-2.4,0.2-4.9,0.5-7.4,0.7
			c2.5-1.3,5.3-2.9,8.2-4.9c0,0,0.1,0,0.1-0.1c0.2-0.1,0.3-0.2,0.5-0.3c0.1-0.1,0.2-0.2,0.4-0.3c0.3-0.2,0.5-0.4,0.8-0.6
			c3.1-2.3,5.8-4.6,8-6.7c-2-0.2-4-0.5-6-0.7c2.6-1.2,5.4-2.7,8.3-4.5c0.7-0.4,1.3-0.8,1.9-1.2c0.2-0.1,0.4-0.2,0.5-0.4c0,0,0,0,0,0
			c0.3-0.2,0.6-0.4,0.8-0.5c0.9-0.6,1.8-1.2,2.6-1.8c0.1-0.1,0.1-0.1,0.2-0.2c0.2-0.2,0.4-0.3,0.6-0.4c0,0,0.1-0.1,0.1-0.1
			c0.9-0.7,1.8-1.3,2.6-2c-1.9-0.3-3.8-0.6-5.7-0.8c2.7-0.9,5.7-2,8.9-3.5c2-1,3.9-2,5.5-3c-1.4-0.1-2.7-0.3-4.1-0.4
			c1.9-0.6,3.9-1.3,6-2.2c0.8-0.3,1.5-0.6,2.2-0.9l0,0c2.5-1.1,4.7-2.2,6.7-3.3c-0.1,0.1-1.5,2.2-2.1,6.8c-0.3,2-0.3,4.5-0.1,7.5
			c-0.7-1.4-1.4-2.8-2.1-4.2c0.3,2.3,0.8,4.9,1.6,7.6c0,0,0,0,0,0.1c0,0.2,0.1,0.3,0.1,0.5l0,0c0,0,0,0.1,0,0.1
			c0.1,0.3,0.2,0.6,0.3,0.9c1,3,2,5.3,3.1,7.5c-1.2-1.5-2.4-2.6-3.6-4c0.4,2.4,1,4.9,1.7,7.6C56.7,40.5,58,44,59.3,47
			c-1.4-1.4-2.8-2.7-4.2-4.1c0.2,1.1,0.4,2.2,0.6,3.4c0.1,0.5,0.2,1,0.3,1.5c0,0.2,0.1,0.3,0.1,0.5c0,0,0,0.1,0,0.1
			c0.1,0.2,0.1,0.5,0.2,0.7c0,0,0,0,0,0c0.2,0.6,0.3,1.2,0.5,1.9c0.4,1.3,0.8,2.6,1.2,3.8c0,0,0,0.1,0,0.1c0.1,0.2,0.1,0.4,0.2,0.5
			c0.1,0.2,0.1,0.3,0.2,0.5c0.5,1.5,1.1,2.8,1.6,4c-1.4-1.1-2.7-2.1-4.1-3.2c0.4,1.6,1.1,3.6,2.3,5.8C59.4,64.9,60.8,66.7,61.9,68z"
			/>
		<path d="M62.1,68.1l-0.2,0c-4.8-0.7-9.6-1.5-14.4-2.5c-6.7-1.4-13.3-3.1-19.7-5l-0.2-0.1l3.2-1.2l-8.9-1.6l0.5-0.1
			c0.5-0.1,1-0.1,1.5-0.2c0.9-0.1,1.9-0.2,2.6-0.4c-3.2-0.7-6.5-1.7-9.6-3c-3.7-1.5-7.3-3.4-10.7-5.6L6,48.5l0.2,0
			c1.9-0.5,3.7-1.2,5.4-2.1c1-0.5,1.9-1.2,2.8-1.9l-0.1,0c-2.3,0.2-4.6,0.5-7,0.7l-0.4,0L7.2,45c2.9-1.5,5.6-3.1,8.2-4.9l0.1-0.1
			c0.2-0.1,0.3-0.2,0.5-0.3c0.1-0.1,0.2-0.2,0.4-0.3c0.3-0.2,0.5-0.4,0.8-0.6c2.8-2,5.4-4.2,7.9-6.6L19,31.6l0.2-0.1
			c2.8-1.3,5.6-2.9,8.3-4.5c0.7-0.4,1.3-0.8,1.9-1.2c0.2-0.1,0.4-0.2,0.5-0.4c0,0,0,0,0,0c0.3-0.2,0.5-0.4,0.8-0.5
			c0.9-0.6,1.8-1.2,2.6-1.8c0,0,0.1-0.1,0.1-0.1c0,0,0.1-0.1,0.1-0.1c0.2-0.1,0.4-0.3,0.6-0.4l0.1-0.1c0.8-0.6,1.6-1.2,2.4-1.9
			L36,20.4c-1.6-0.2-3.2-0.5-4.8-0.7l-0.3,0l0.3-0.1c3-1,6-2.2,8.9-3.5c1.8-0.9,3.6-1.9,5.3-2.9l-4.2-0.4l0.4-0.1
			c2-0.6,4.1-1.4,6-2.2c0.7-0.3,1.4-0.6,2.2-0.9l0,0c2.3-1,4.5-2.1,6.7-3.3l0.3-0.2l-0.2,0.3c-0.2,0.2-1.5,2.3-2.1,6.8
			c-0.3,2.3-0.3,4.8-0.1,7.5l0,0.4l-0.2-0.4c-0.6-1.3-1.2-2.5-1.9-3.8c0.4,2.4,0.9,4.8,1.6,7.1c0,0,0,0,0,0.1
			c0.1,0.2,0.1,0.3,0.1,0.5l0,0.1c0.1,0.3,0.2,0.5,0.2,0.8l0,0.1c0.9,3,2,5.2,3.1,7.5l0.3,0.6l-0.4-0.5c-0.6-0.7-1.2-1.4-1.8-2
			c-0.5-0.6-1.1-1.2-1.6-1.8c0.4,2.5,1,4.9,1.7,7.3c1,3.5,2.2,7,3.6,10.3l0.2,0.4l-4.3-4.2c0.2,1.1,0.3,2.1,0.6,3.2
			c0.1,0.5,0.2,1,0.3,1.5c0,0.1,0.1,0.3,0.1,0.4l0,0.1c0,0,0,0,0,0c0,0,0,0,0,0.1l0,0.1c0,0.2,0.1,0.4,0.1,0.6l0,0c0,0,0,0,0,0
			c0.1,0.6,0.3,1.2,0.5,1.9c0.4,1.3,0.8,2.5,1.2,3.8c0,0,0,0,0,0.1c0,0,0,0,0,0.1c0.1,0.2,0.1,0.4,0.2,0.5c0.1,0.2,0.1,0.3,0.2,0.5
			c0.5,1.4,1.1,2.7,1.6,4l0.1,0.3L60,60c-1.3-1-2.6-2-3.9-3c0.5,1.9,1.3,3.8,2.2,5.6c1,1.9,2.3,3.8,3.7,5.4L62.1,68.1z M28.1,60.5
			c6.4,1.9,12.9,3.6,19.5,4.9c4.7,1,9.4,1.8,14.1,2.5c-1.4-1.6-2.6-3.4-3.6-5.3c-1-1.9-1.8-3.8-2.3-5.8l-0.1-0.2l0.2,0.1
			c1.3,1,2.6,2,3.8,3c-0.5-1.2-1.1-2.5-1.5-3.8c-0.1-0.2-0.1-0.3-0.2-0.5c-0.1-0.2-0.1-0.4-0.2-0.5c0,0,0,0,0-0.1c0,0,0,0,0-0.1
			c-0.4-1.2-0.8-2.5-1.2-3.8c-0.2-0.6-0.3-1.3-0.5-1.9c0,0,0,0,0,0c0-0.2-0.1-0.4-0.1-0.6l0-0.2c0,0,0,0,0,0c0,0,0,0,0,0l0-0.1
			c0-0.1-0.1-0.3-0.1-0.4c-0.1-0.5-0.2-1-0.3-1.5c-0.2-1.2-0.4-2.3-0.6-3.5l0-0.2l4.1,4c-1.4-3.2-2.5-6.6-3.4-10
			c-0.7-2.5-1.3-5.1-1.7-7.7l-0.1-0.3L54,29c0.6,0.7,1.2,1.4,1.8,2c0.4,0.5,0.9,1,1.4,1.5c-1-2.1-2-4.2-2.9-6.9l0-0.1
			c-0.1-0.3-0.2-0.5-0.2-0.8l0-0.1c0-0.2-0.1-0.3-0.1-0.5c0,0,0,0,0-0.1c-0.7-2.5-1.3-5.1-1.6-7.7l-0.1-0.5l0.2,0.4
			c0.6,1.3,1.3,2.6,1.9,3.8c-0.2-2.5-0.2-4.9,0.1-7.1c0.5-3.8,1.5-5.9,1.9-6.6c-2.1,1.1-4.2,2.2-6.4,3.2l0,0l0,0
			c-0.9,0.4-1.6,0.7-2.3,0.9c-1.8,0.7-3.7,1.4-5.7,2l3.9,0.4l-0.2,0.1c-1.8,1.1-3.6,2.1-5.5,3c-2.8,1.3-5.6,2.5-8.6,3.5
			c1.5,0.2,3,0.4,4.4,0.6l1.1,0.2L37,20.5c-0.8,0.7-1.7,1.3-2.6,2l-0.1,0.1c-0.2,0.1-0.4,0.3-0.6,0.4c0,0-0.1,0.1-0.1,0.1
			c0,0-0.1,0.1-0.1,0.1c-0.8,0.6-1.7,1.2-2.6,1.8c-0.3,0.2-0.5,0.4-0.8,0.5c0,0,0,0,0,0c-0.2,0.1-0.4,0.2-0.5,0.3
			c-0.6,0.4-1.2,0.8-1.9,1.2c-2.6,1.6-5.3,3.1-8.1,4.4l5.8,0.7l-0.1,0.1c-2.5,2.4-5.2,4.7-8,6.7c-0.3,0.2-0.5,0.4-0.8,0.6
			c-0.1,0.1-0.2,0.2-0.4,0.3c-0.2,0.1-0.3,0.2-0.5,0.3l-0.1,0.1C13,42,10.4,43.5,7.7,45c2.2-0.2,4.4-0.4,6.6-0.7l0.6-0.1l-0.2,0.2
			c-1,0.8-2,1.4-3,2c-1.6,0.9-3.4,1.6-5.2,2.1c3.3,2.1,6.9,4,10.5,5.4c3.2,1.3,6.5,2.3,9.8,3.1l0.3,0.1l-0.3,0.1
			c-0.8,0.2-1.9,0.4-2.9,0.5c-0.4,0-0.7,0.1-1,0.1l8.6,1.5L28.1,60.5z"/>
		<path d="M44.8,20.8c-0.1,0-0.1,0-0.2,0c-0.4-0.2-0.3-1.1-0.2-1.5c-0.3,0.3-1,0.8-1.4,0.5c-0.1-0.1-0.2-0.2-0.2-0.3
			c-0.1-0.7,1.1-2,1.1-2.1l0.1,0.1c-0.3,0.4-1.2,1.4-1.1,1.9c0,0.1,0,0.1,0.1,0.2c0.6,0.4,1.4-0.7,1.5-0.7l0.3-0.3L44.6,19
			c-0.1,0.4-0.4,1.4,0,1.7c0.4,0.2,1.5-0.7,1.9-1.1l0.1,0.1C46.5,19.7,45.4,20.8,44.8,20.8z"/>
		<path d="M48.8,31.3c0,0-0.1,0-0.1,0c-0.5-0.2-0.5-1-0.4-1.5c-0.3,0.4-0.8,0.9-1.4,0.7c-0.1-0.1-0.2-0.1-0.2-0.3
			c-0.2-0.6,0.8-2.1,0.8-2.2l0.1,0.1c-0.3,0.4-0.9,1.6-0.8,2.1c0,0.1,0.1,0.1,0.1,0.2c0.6,0.3,1.3-0.9,1.3-0.9l0.2-0.3l-0.1,0.4
			c-0.1,0.4-0.1,1.5,0.3,1.6c0.4,0.2,1.4-0.9,1.7-1.4l0.1,0.1C50.5,30,49.5,31.3,48.8,31.3z"/>
		<path d="M47.7,51.5C47.6,51.5,47.6,51.5,47.7,51.5c-0.5,0-0.8-0.8-0.9-1.3c-0.1,0.4-0.5,1.2-1,1.1c-0.1,0-0.2-0.1-0.3-0.2
			c-0.4-0.5,0-2.3,0-2.4l0.2,0c-0.1,0.5-0.4,1.8-0.1,2.2c0,0.1,0.1,0.1,0.2,0.1c0.7,0.1,1-1.3,1-1.3l0.1-0.4l0.1,0.4
			c0.1,0.4,0.4,1.4,0.8,1.4c0,0,0,0,0,0c0.5,0,1-1.3,1.1-1.9l0.1,0C48.9,49.7,48.3,51.5,47.7,51.5z"/>
		<path d="M23,42.1c-0.1,0-0.1,0-0.1,0c-0.5-0.2-0.4-1-0.4-1.5c-0.3,0.4-0.8,0.9-1.4,0.7c-0.1-0.1-0.2-0.1-0.2-0.3
			c-0.2-0.6,0.8-2.1,0.9-2.2l0.1,0.1c-0.3,0.4-1,1.6-0.9,2.1c0,0.1,0.1,0.1,0.1,0.2c0.6,0.3,1.3-0.9,1.4-0.9l0.2-0.3l-0.1,0.4
			c-0.1,0.4-0.2,1.5,0.2,1.6c0.4,0.2,1.4-0.9,1.7-1.3l0.1,0.1C24.6,40.8,23.6,42.1,23,42.1z"/>
		<path d="M32.6,58.1c-0.1,0-0.1,0-0.1,0c-0.5-0.2-0.4-1-0.4-1.5c-0.3,0.4-0.8,0.9-1.4,0.7c-0.1-0.1-0.2-0.1-0.2-0.3
			c-0.2-0.6,0.8-2.1,0.9-2.2l0.1,0.1c-0.3,0.4-1,1.6-0.9,2.1c0,0.1,0.1,0.1,0.1,0.2c0.6,0.3,1.3-0.9,1.4-0.9l0.2-0.3l-0.1,0.4
			c-0.1,0.4-0.2,1.5,0.2,1.6c0.4,0.2,1.4-0.9,1.7-1.3l0.1,0.1C34.2,56.9,33.2,58.1,32.6,58.1z"/>
		<path d="M51.5,62.6C51.5,62.6,51.5,62.6,51.5,62.6c-0.5,0-0.8-0.8-0.9-1.3c-0.1,0.4-0.5,1.2-1.1,1.1c-0.1,0-0.2-0.1-0.3-0.2
			c-0.4-0.5,0-2.3,0.1-2.4l0.2,0c-0.1,0.5-0.4,1.8-0.1,2.2c0,0.1,0.1,0.1,0.2,0.1c0.7,0.1,1-1.3,1-1.3l0.1-0.4l0.1,0.4
			c0.1,0.4,0.4,1.4,0.8,1.4c0,0,0,0,0,0c0.5,0,1-1.3,1.2-1.9l0.1,0C52.7,60.8,52.1,62.6,51.5,62.6z"/>
		<path class="st3" d="M59,5.3l1.6-4.6l-3.9,2.8l-4-3.1l2,4.6L50,7.8l4.2-0.3c-1.4,0.7-2.8,1.4-4.4,2.1l0,0c0.3,0.6,0.9,1.3,1.7,2
			c1,0.9,2.1,1.3,2.9,1.5c0.3-2.1,0.7-3.7,1.1-4.8l0.6,4.4l1.7-5l4.8,0.6L59,5.3z"/>
		<path d="M54.5,13.2L54.5,13.2c-1.2-0.3-2.1-0.8-3-1.5c-0.7-0.6-1.3-1.3-1.8-2.1l0,0l0-0.1l0,0c1.4-0.6,2.7-1.2,4-1.9l-4.2,0.3
			l5-2.9l-2.1-4.8l4.2,3.3l4.1-2.9l-1.6,4.8L63,8.4l-5-0.6L56.1,13l-0.6-4.4C55.1,9.9,54.8,11.5,54.5,13.2L54.5,13.2z M50,9.6
			c0.5,0.7,1,1.4,1.7,1.9c0.8,0.7,1.7,1.1,2.8,1.4c0.2-1.8,0.6-3.4,1.1-4.8l0.1-0.3l0.6,4.4l1.6-4.7l4.6,0.5l-3.6-2.8l1.5-4.4
			l-3.8,2.7l-3.8-3L54.8,5l-4.5,2.7l4.3-0.3l-0.3,0.2C52.9,8.3,51.4,9,50,9.6z"/>
		<path d="M54.1,24.7c-0.8,0.2-1.6,0.4-2.4,0.6c-0.4,0.1-0.9,0.2-1.3,0.2c-0.1,0-0.2,0-0.4,0.1c-3.1,0.4-6.3,0.2-9.3-0.4
			c-1.5-0.3-2.9-0.6-4.3-1c-0.9-0.3-1.8-0.7-2.7-1.1c0.2-0.2,0.4-0.3,0.6-0.4c0.9,0.5,1.9,0.8,2.9,1.1c0.9,0.2,1.8,0.5,2.7,0.7
			c0.4,0.1,0.9,0.2,1.3,0.3c0,0,0,0,0,0c1.6,0.3,3.3,0.5,4.9,0.5c2.7,0.1,5.3-0.3,7.8-1.1c0,0,0,0,0,0.1
			C54,24.2,54.1,24.4,54.1,24.7L54.1,24.7C54.1,24.6,54.1,24.6,54.1,24.7z"/>
		<path class="st3" d="M42.1,23.2c0,0.8-0.5,1.4-1.3,1.4c-0.8,0-1.4-0.5-1.4-1.3c0-0.8,0.5-1.4,1.3-1.4
			C41.4,21.9,42.1,22.4,42.1,23.2z"/>
		<path d="M40.8,24.7c-0.4,0-0.7-0.1-1-0.4c-0.3-0.3-0.5-0.6-0.5-1c0-0.4,0.1-0.8,0.4-1c0.3-0.3,0.6-0.5,1-0.5
			c0.8,0,1.5,0.6,1.5,1.4C42.2,24,41.6,24.7,40.8,24.7C40.8,24.7,40.8,24.7,40.8,24.7z M40.8,22C40.7,22,40.7,22,40.8,22
			c-0.4,0-0.7,0.2-1,0.4c-0.2,0.3-0.3,0.6-0.3,0.9c0,0.3,0.2,0.7,0.4,0.9c0.3,0.2,0.6,0.3,0.9,0.3c0.7,0,1.3-0.6,1.2-1.4
			C42,22.5,41.4,22,40.8,22z"/>
		<path class="st3" d="M52.7,26.5c0,0.8-0.5,1.4-1.3,1.4c-0.8,0-1.4-0.5-1.4-1.3c0-0.8,0.5-1.4,1.3-1.4C52,25.1,52.6,25.7,52.7,26.5
			z"/>
		<path d="M51.3,28c-0.8,0-1.4-0.6-1.4-1.4c0-0.8,0.6-1.5,1.4-1.5c0.8,0,1.5,0.6,1.5,1.4C52.8,27.3,52.2,27.9,51.3,28
			C51.3,28,51.3,28,51.3,28z M51.3,25.2C51.3,25.2,51.2,25.2,51.3,25.2c-0.8,0-1.3,0.6-1.3,1.4c0,0.7,0.6,1.3,1.4,1.2
			c0.7,0,1.3-0.6,1.2-1.4C52.5,25.8,52,25.2,51.3,25.2z"/>
		<path d="M58.2,55.5c-3,0.1-6,0.1-9.1,0c-2.9-0.2-5.8-0.5-8.6-1.1c-0.4-0.1-0.8-0.2-1.3-0.3c0,0-0.1,0-0.1,0
			C36,53.2,33,52.1,30,50.7c-3-1.4-5.8-3.1-8.5-5c-0.2-0.2-0.4-0.3-0.7-0.5c-0.3-0.2-0.6-0.4-0.8-0.6c0,0,0,0,0,0
			c-0.8-0.6-1.5-1.3-2.2-2c-0.8-0.8-1.6-1.6-2.3-2.5c0,0,0.1,0,0.1-0.1c0.2-0.1,0.3-0.2,0.5-0.3c0.8,0.9,1.7,1.9,2.6,2.7
			c1.3,1.2,2.8,2.4,4.3,3.4c1.8,1.2,3.7,2.3,5.6,3.3l0,0c0.2,0.1,0.4,0.2,0.6,0.3c3.6,1.8,7.4,3.2,11.4,4.1
			c3.4,0.7,6.9,1.1,10.5,1.2l0,0c0.6,0,1.2,0,1.8,0c0,0,0,0,0,0c1.7,0,3.4,0,5.1-0.1c0,0,0,0.1,0,0.1C58.1,55.1,58.1,55.3,58.2,55.5
			z"/>
		<path class="st3" d="M30.9,48.1c0,0.8-0.5,1.4-1.3,1.4c-0.8,0-1.4-0.5-1.4-1.3c0-0.8,0.5-1.4,1.3-1.4
			C30.2,46.8,30.8,47.4,30.9,48.1z"/>
		<path d="M29.5,49.7c-0.8,0-1.4-0.6-1.4-1.4c0-0.4,0.1-0.8,0.4-1s0.6-0.5,1-0.5c0.8,0,1.5,0.6,1.5,1.4C31,48.9,30.4,49.6,29.5,49.7
			C29.5,49.7,29.5,49.7,29.5,49.7z M29.5,46.9C29.5,46.9,29.4,46.9,29.5,46.9c-0.4,0-0.7,0.2-1,0.4c-0.2,0.3-0.3,0.6-0.3,0.9
			c0,0.7,0.6,1.3,1.4,1.2c0.7,0,1.3-0.6,1.2-1.4C30.7,47.5,30.2,46.9,29.5,46.9z"/>
		<path class="st3" d="M40.9,55.2c0,0.8-0.5,1.4-1.3,1.4c-0.8,0-1.4-0.5-1.4-1.3c0-0.8,0.5-1.4,1.3-1.4
			C40.2,53.9,40.9,54.5,40.9,55.2z"/>
		<path d="M39.5,56.7c-0.8,0-1.4-0.6-1.4-1.4c0-0.8,0.6-1.5,1.4-1.5c0.8,0,1.5,0.6,1.5,1.4C41,56,40.4,56.7,39.5,56.7
			C39.6,56.7,39.6,56.7,39.5,56.7z M39.5,54C39.5,54,39.5,54,39.5,54c-0.8,0-1.3,0.6-1.3,1.4c0,0.7,0.6,1.3,1.4,1.2
			c0.7,0,1.3-0.6,1.2-1.4C40.8,54.5,40.2,54,39.5,54z"/>
		<path class="st3" d="M53.3,53.7c0,0.8-0.5,1.4-1.3,1.4c-0.8,0-1.4-0.5-1.4-1.3c0-0.8,0.5-1.4,1.3-1.4C52.6,52.4,53.3,53,53.3,53.7
			z"/>
		<path d="M51.9,55.3c-0.4,0-0.7-0.1-1-0.4c-0.3-0.3-0.5-0.6-0.5-1c0-0.8,0.6-1.5,1.4-1.5c0.8,0,1.5,0.6,1.5,1.4
			C53.4,54.5,52.8,55.2,51.9,55.3C52,55.3,52,55.3,51.9,55.3z M52,52.5C51.9,52.5,51.9,52.5,52,52.5c-0.8,0-1.3,0.6-1.3,1.4
			c0,0.3,0.2,0.7,0.4,0.9c0.3,0.2,0.6,0.3,0.9,0.3c0.7,0,1.3-0.6,1.2-1.4C53.2,53.1,52.6,52.5,52,52.5z"/>
		<path class="st3" d="M21,45.8c0,0.8-0.5,1.4-1.3,1.4c-0.8,0-1.4-0.5-1.4-1.3c0-0.8,0.5-1.4,1.3-1.4C20.4,44.5,21,45.1,21,45.8z"/>
		<path d="M19.7,47.4c-0.8,0-1.4-0.6-1.4-1.4c0-0.8,0.6-1.5,1.4-1.5c0.8,0,1.5,0.6,1.5,1.4c0,0.4-0.1,0.8-0.4,1
			C20.5,47.2,20.1,47.3,19.7,47.4C19.7,47.4,19.7,47.4,19.7,47.4z M19.7,44.6C19.7,44.6,19.6,44.6,19.7,44.6c-0.8,0-1.3,0.6-1.3,1.4
			c0,0.7,0.6,1.3,1.4,1.2c0.3,0,0.7-0.2,0.9-0.4c0.2-0.3,0.3-0.6,0.3-0.9C20.9,45.2,20.4,44.6,19.7,44.6z"/>
		<path d="M56.1,48.4c0.1,0.2,0.1,0.5,0.2,0.7c-1.5-0.5-2.8-1.2-4.2-1.9c-1.4-0.7-2.7-1.5-4-2.4c-0.6-0.4-1.2-0.8-1.7-1.2
			c-2.7-1.9-5.2-4-7.5-6.4c-3.4-3.5-6.4-7.5-9.3-11.4c0.2-0.1,0.4-0.2,0.5-0.4c0,0,0,0,0,0c1.4,2,2.9,3.9,4.4,5.8
			c1.7,2.1,3.5,4.3,5.5,6.2c1.9,1.9,4,3.7,6.1,5.2c2.2,1.6,4.6,3.1,7.1,4.4c0.9,0.4,1.7,0.8,2.6,1.2C55.9,48.3,56,48.3,56.1,48.4
			c0.2,0,0.4,0.1,0.6,0.1C56.5,48.6,56.3,48.5,56.1,48.4z"/>
		<path class="st3" d="M48.1,44.9c0,0.8-0.5,1.4-1.3,1.4c-0.8,0-1.4-0.5-1.4-1.3c0-0.8,0.5-1.4,1.3-1.4C47.4,43.6,48,44.2,48.1,44.9
			z"/>
		<path d="M46.7,46.5c-0.4,0-0.7-0.1-1-0.4c-0.3-0.3-0.5-0.6-0.5-1c0-0.8,0.6-1.5,1.4-1.5c0.4,0,0.8,0.1,1,0.4
			c0.3,0.3,0.5,0.6,0.5,1C48.2,45.7,47.6,46.4,46.7,46.5C46.8,46.5,46.7,46.5,46.7,46.5z M46.7,43.7C46.7,43.7,46.7,43.7,46.7,43.7
			c-0.8,0-1.3,0.6-1.3,1.4c0,0.3,0.2,0.7,0.4,0.9c0.3,0.2,0.6,0.3,0.9,0.3c0.7,0,1.3-0.6,1.2-1.4c0-0.3-0.2-0.7-0.4-0.9
			C47.3,43.8,47,43.7,46.7,43.7z"/>
		<path class="st3" d="M58.1,47.1c0,0.8-0.5,1.4-1.3,1.4c0,0-0.1,0-0.1,0c0,0,0,0,0,0c-0.2,0-0.4-0.1-0.6-0.1
			c-0.1,0-0.2-0.1-0.3-0.2c-0.3-0.2-0.5-0.6-0.5-1c0-0.3,0.1-0.7,0.3-0.9c0.2-0.3,0.6-0.5,1-0.5C57.4,45.8,58,46.4,58.1,47.1z"/>
		<path d="M56.7,48.6C56.7,48.6,56.7,48.6,56.7,48.6c-0.2,0-0.4-0.1-0.6-0.1c-0.1-0.1-0.2-0.1-0.3-0.2c-0.3-0.3-0.5-0.6-0.5-1
			c0-0.4,0.1-0.7,0.3-1c0.3-0.3,0.6-0.5,1.1-0.5c0.8,0,1.5,0.6,1.5,1.4c0,0.4-0.1,0.8-0.4,1C57.5,48.4,57.2,48.6,56.7,48.6
			C56.7,48.6,56.7,48.6,56.7,48.6z M56.7,45.9C56.7,45.9,56.7,45.9,56.7,45.9c-0.4,0-0.8,0.2-1,0.5c-0.2,0.2-0.3,0.6-0.3,0.9
			c0,0.4,0.2,0.7,0.5,0.9c0.1,0.1,0.2,0.1,0.3,0.2c0.2,0.1,0.4,0.1,0.5,0.1c0,0,0.1,0,0.1,0c0.3,0,0.7-0.2,0.9-0.4
			c0.2-0.3,0.3-0.6,0.3-0.9C57.9,46.4,57.4,45.9,56.7,45.9z"/>
		<path d="M37.1,44.7C37.1,44.7,37.1,44.7,37.1,44.7c-2.8,0.3-5.5-0.9-7.3-2.9c-0.7-0.7-1.3-1.6-1.8-2.6c-0.7-1.5-1-3.2,0-4.7
			c0.9-1.3,2.1-1.1,3.3-0.4c1.1,0.6,2.1,1.7,2.7,2.3c0.5,0.5,1.1,1,1.8,1.4c1.1,0.6,2.4,0.7,3.5,1.2c0.2,0.1,0.5,0.2,0.7,0.4
			c0.7,0.5,1.4,1.1,1.6,1.9C42.1,43.5,38.6,44.6,37.1,44.7z"/>
		<path d="M36.4,44.8c-2.4,0-4.9-1.1-6.7-3c-0.7-0.8-1.4-1.7-1.8-2.6c-0.6-1.3-1.1-3.1,0-4.7c0.8-1.2,1.9-1.3,3.4-0.4
			c1.1,0.7,2.1,1.7,2.7,2.3c0.4,0.4,1,1,1.8,1.4c0.6,0.3,1.2,0.5,1.8,0.6c0.5,0.1,1.1,0.3,1.6,0.5c0.3,0.1,0.5,0.3,0.7,0.4
			c0.4,0.3,1.4,1,1.6,1.9c0.1,0.5,0,1.1-0.3,1.5c-0.8,1.2-3,1.8-4.2,2l0,0C36.8,44.8,36.6,44.8,36.4,44.8z M37.1,44.6L37.1,44.6
			L37.1,44.6L37.1,44.6c1.3-0.1,3.4-0.8,4.1-1.9c0.3-0.4,0.4-0.9,0.3-1.4c-0.2-0.9-1.2-1.5-1.5-1.8c-0.2-0.1-0.4-0.3-0.7-0.4
			c-0.5-0.2-1.1-0.4-1.6-0.5c-0.6-0.2-1.3-0.3-1.9-0.7c-0.7-0.4-1.4-1-1.8-1.4c-0.6-0.6-1.6-1.6-2.7-2.3c-1.5-0.9-2.5-0.8-3.2,0.3
			c-1,1.6-0.5,3.4,0,4.6c0.4,0.9,1,1.8,1.8,2.6C31.8,43.8,34.5,44.9,37.1,44.6z"/>
		<path class="st5" d="M37.1,44.7C37.1,44.7,37.1,44.7,37.1,44.7c-2.8,0.3-5.5-0.9-7.3-2.9c-0.7-0.7-1.3-1.6-1.8-2.6
			c1.7-0.7,3.9-0.6,5.8,0.6C35.8,41,36.9,42.9,37.1,44.7z"/>
		<path d="M36.4,44.8c-2.4,0-4.9-1.1-6.7-3c-0.7-0.8-1.4-1.7-1.8-2.6l0-0.1l0.1,0c1.8-0.8,4-0.5,5.9,0.6c1.9,1.1,3.2,3,3.3,4.9
			l0,0.1l-0.1,0C36.8,44.8,36.6,44.8,36.4,44.8z M28.1,39.3c0.4,0.9,1,1.7,1.7,2.5c1.9,2,4.6,3.1,7.2,2.9c-0.2-1.8-1.4-3.6-3.2-4.7
			C32,38.8,29.8,38.6,28.1,39.3z"/>
		<path d="M37.6,27.2L37.1,28l3.8,2l0.5-0.8L37.6,27.2z"/>
		<path d="M40.9,30.1L37,28l0.5-1l3.9,2.1L40.9,30.1z M37.2,28l3.6,2l0.4-0.7l-3.6-2L37.2,28z"/>
		<path d="M55.3,36.7c-2.7,4.9-7.8,7.3-11.7,5.4c-0.1,0-0.2-0.1-0.2-0.1c-0.2-0.1-0.5-0.3-0.7-0.4l0,0c-0.1-0.1-0.2-0.2-0.3-0.3
			c-0.5-0.5-1-1-1.4-1.6c-1.7-2.7-1.7-6.8,0.3-10.5L55.3,36.7z"/>
		<path d="M46.5,42.9c-1,0-2-0.2-2.9-0.7c-0.1,0-0.2-0.1-0.2-0.1c-0.2-0.1-0.5-0.3-0.7-0.5c-0.1-0.1-0.2-0.2-0.3-0.3
			c-0.5-0.5-1-1-1.4-1.6c-1.7-2.8-1.6-7,0.3-10.6l0-0.1l14.1,7.6l0,0.1C53.3,40.6,49.8,42.9,46.5,42.9z M41.4,29.3
			c-1.9,3.5-2,7.6-0.3,10.4c0.4,0.6,0.8,1.1,1.4,1.6c0.1,0.1,0.2,0.2,0.3,0.3c0.2,0.2,0.5,0.3,0.7,0.4c0.1,0,0.1,0.1,0.2,0.1
			c1.8,0.9,4.1,0.8,6.2-0.2c2.2-1,4-2.8,5.3-5.2L41.4,29.3z"/>
		<path class="st2" d="M50,33.9c-2.5,2.6-5,5-7.6,7.5c-0.5-0.5-1-1-1.4-1.6c2.3-2.3,4.8-4.5,7.1-6.9L50,33.9z"/>
		<path d="M42.4,41.4L42.4,41.4c-0.6-0.5-1.1-1-1.5-1.7l0-0.1l0,0c1-1,2-1.9,3-2.9c1.4-1.3,2.8-2.6,4.1-4l0,0l2.1,1.1L50,33.9
			C47.6,36.4,45.2,38.8,42.4,41.4L42.4,41.4z M41.1,39.7c0.4,0.6,0.8,1.1,1.3,1.5c2.7-2.5,5.1-4.9,7.5-7.3l-1.8-1
			c-1.3,1.4-2.7,2.7-4.1,4C43.1,37.8,42.1,38.8,41.1,39.7z"/>
		<path class="st2" d="M51.2,34.5c-2.5,2.6-5.1,5.1-7.6,7.6c-0.1,0-0.2-0.1-0.2-0.1c-0.2-0.1-0.5-0.3-0.7-0.4c2-1.9,4.1-3.9,6-5.9
			c0.5-0.5,1.1-1.1,1.6-1.7L51.2,34.5z"/>
		<path d="M43.7,42.2L43.7,42.2c-0.1-0.1-0.2-0.1-0.3-0.1c-0.2-0.1-0.5-0.3-0.7-0.5l-0.1-0.1l0.1-0.1c2.2-2.1,4.1-3.9,6-5.9
			c0.6-0.6,1.1-1.1,1.6-1.7l0,0l1,0.6l-0.1,0.1c-1.4,1.5-2.9,3-4.4,4.4C45.9,40,44.8,41.1,43.7,42.2L43.7,42.2z M42.8,41.6
			c0.2,0.1,0.4,0.3,0.6,0.4c0.1,0,0.1,0.1,0.2,0.1c1.1-1.1,2.1-2.1,3.2-3.2c1.4-1.4,2.9-2.9,4.3-4.3l-0.7-0.4c-0.5,0.5-1,1-1.6,1.6
			C46.9,37.7,45,39.5,42.8,41.6z"/>
		<path d="M37.6,27.2c-2.7,5-8,7.4-11.9,5.3c-0.1-0.1-0.2-0.1-0.3-0.2c-0.3-0.2-0.6-0.4-0.9-0.6c-0.1-0.1-0.2-0.2-0.3-0.3
			c-0.5-0.5-0.9-1.1-1.2-1.8c-1.3-2.7-1.2-6.5,0.7-10L37.6,27.2z"/>
		<path d="M28.7,33.3c-1.1,0-2.1-0.2-3.1-0.8c-0.1-0.1-0.2-0.1-0.4-0.2c-0.3-0.2-0.6-0.4-0.9-0.7c-0.1-0.1-0.2-0.2-0.3-0.3
			c-0.5-0.5-0.9-1.1-1.2-1.8c-1.4-2.8-1.2-6.7,0.7-10l0-0.1l14.1,7.6l0,0.1C35.6,31,32,33.3,28.7,33.3z M23.6,19.7
			c-1.7,3.3-2,7-0.6,9.8c0.3,0.7,0.7,1.2,1.2,1.7c0.1,0.1,0.2,0.2,0.3,0.3c0.3,0.2,0.5,0.5,0.9,0.6c0.1,0.1,0.2,0.1,0.3,0.2
			c3.8,2,9.1-0.3,11.7-5.2L23.6,19.7z"/>
		<path class="st2" d="M31.7,24c-2.4,2.5-5,4.9-7.5,7.4c-0.5-0.5-0.9-1.1-1.2-1.8c2.3-2.2,4.6-4.4,6.8-6.6L31.7,24z"/>
		<path d="M24.2,31.4L24.2,31.4c-0.5-0.6-1-1.2-1.3-1.8l0-0.1l0,0c0.9-0.9,1.8-1.8,2.7-2.6c1.4-1.3,2.8-2.6,4.1-4l0,0l2.1,1.1
			L31.7,24C29.3,26.6,26.7,29.1,24.2,31.4L24.2,31.4z M23,29.6c0.3,0.6,0.7,1.2,1.1,1.6c2.4-2.3,5-4.7,7.4-7.2l-1.8-1
			c-1.3,1.4-2.7,2.7-4.1,4C24.8,27.9,23.9,28.7,23,29.6z"/>
		<path class="st2" d="M32.9,24.7c-2.5,2.6-5.1,5.1-7.6,7.6c-0.3-0.2-0.6-0.4-0.9-0.6c2-1.9,4-3.8,6-5.8c0.5-0.5,1.1-1.1,1.6-1.7
			L32.9,24.7z"/>
		<path d="M25.3,32.4L25.3,32.4c-0.4-0.2-0.7-0.4-0.9-0.7l-0.1-0.1l0.1-0.1c1.9-1.8,4-3.8,6-5.8c0.6-0.6,1.1-1.1,1.6-1.7l0,0l1,0.6
			L33,24.7c-1.4,1.5-2.9,3-4.4,4.4C27.5,30.2,26.4,31.2,25.3,32.4L25.3,32.4z M24.6,31.6c0.2,0.2,0.5,0.4,0.7,0.6
			c1.1-1.1,2.1-2.1,3.2-3.2c1.4-1.4,2.9-2.9,4.3-4.3L32,24.3c-0.5,0.5-1,1-1.6,1.6C28.5,27.9,26.5,29.8,24.6,31.6z"/>
		<path class="st3" d="M35.6,33c-0.6,0.7-0.4,1.8,0.4,2.4c0.8,0.6,1.9,0.5,2.5-0.3c0.6-0.7,0.4-1.8-0.4-2.4
			C37.2,32.1,36.1,32.2,35.6,33z"/>
		<path d="M37.1,35.9c-0.4,0-0.8-0.1-1.2-0.4c-0.4-0.3-0.7-0.7-0.8-1.2c-0.1-0.5,0-1,0.3-1.3c0.3-0.4,0.7-0.6,1.2-0.7
			c0.5-0.1,1,0.1,1.4,0.4c0.8,0.6,1,1.8,0.5,2.5C38.2,35.6,37.7,35.9,37.1,35.9z M36.9,32.4c-0.1,0-0.1,0-0.2,0
			c-0.4,0-0.8,0.3-1.1,0.6c-0.3,0.3-0.3,0.8-0.3,1.2c0.1,0.4,0.3,0.8,0.7,1.1c0.8,0.6,1.8,0.5,2.3-0.2c0.5-0.7,0.3-1.7-0.4-2.3
			C37.6,32.5,37.3,32.4,36.9,32.4z"/>
		<path class="st2" d="M37.2,33c0.4,0.6-0.6,1.2-1,0.6C35.9,33,36.8,32.4,37.2,33z"/>
		<path class="st6" d="M34.6,0L33,0.4l2.3,8.1l1.6-0.4L34.6,0z"/>
		<path class="st6" d="M15.3,12.1l-1,1.3l6.3,4.5l1-1.3L15.3,12.1z"/>
		<path class="st6" d="M24.1,4l-1.4,0.8l4.5,7.8l1.4-0.8L24.1,4z"/>
	</g>
</g>
</svg>
