<?xml version="1.0" encoding="utf-8"?>
<svg version="1.1" id="Layer_1" xmlns="http://www.w3.org/2000/svg" xmlns:xlink="http://www.w3.org/1999/xlink" x="0px" y="0px"
	 viewBox="0 0 81 80" style="enable-background:new 0 0 81 80;" xml:space="preserve">
<style type="text/css">
	.st0{clip-path:url(#SVGID_00000176726248448104241500000000936232296640178606_);}
	.st1{fill:#F4F1E3;}
	.st2{fill:#241726;}
	.st3{fill:#B1739A;}
	.st4{fill:#51AEA5;}
	.st5{fill:#D45A41;}
	.st6{fill:#FBFCFF;}
	.st7{fill:#E38B72;}
	.st8{fill:#DF4F3E;}
	.st9{fill:#FFFFFF;}
	.st10{fill:#E1AF01;}
</style>
<g>
	<defs>
		<rect id="SVGID_1_" x="0.7" width="80" height="80"/>
	</defs>
	<clipPath id="SVGID_00000136394082272285123640000013844821962291498423_">
		<use xlink:href="#SVGID_1_"  style="overflow:visible;"/>
	</clipPath>
	<g style="clip-path:url(#SVGID_00000136394082272285123640000013844821962291498423_);">
		<path class="st1" d="M67,78.7H13.1c0,0,5.7-9.9,14.3-8.6c8.6,1.2,7.8,5,14.5,3.7c4.8-0.9,3.7-2.4,9.3-4.5
			C59.2,66.5,67,78.7,67,78.7z"/>
		<path class="st2" d="M73.5,19c-0.1,0-0.1,0-0.1-0.1c-0.1-0.1,0-0.2,0-0.2c0.1-0.1,0.8-0.8,1.1-1.2c-0.4,0.1-1.1,0.2-1.7,0.3
			c-0.1,0-0.2,0-0.2-0.1c0-0.1,0-0.2,0.1-0.2c2.2-0.5,2.2-0.4,2.3-0.2C75,17.5,73.6,18.9,73.5,19C73.5,18.9,73.5,19,73.5,19z"/>
		<path class="st3" d="M70.9,19c0,0,0.2-2.6,1.5-2.1c1.8,0.6,2.7,5.4-0.8,6.4c-3.5,1-4.8-1.8-4.8-1.8l1.9-0.4c0,0-1.3-1.2-1.2-2.2
			c0.1-1,1.2-0.1,1.2-0.1s-1.2-2.3-0.2-2.4C69.5,16.3,70.9,19,70.9,19z"/>
		<path class="st2" d="M72.5,18.7c-0.4,0-0.7-0.5-0.8-0.7c0-0.1,0-0.2,0.1-0.2c0.1,0,0.2,0,0.2,0.1c0.1,0.2,0.4,0.5,0.5,0.5
			c0-0.1-0.1-0.5-0.2-0.8c0-0.1,0-0.2,0.1-0.2c0.1,0,0.2,0,0.2,0.1c0.1,0.3,0.3,0.9,0.2,1.1C72.7,18.6,72.6,18.7,72.5,18.7
			C72.5,18.7,72.5,18.7,72.5,18.7z"/>
		<path class="st2" d="M69.3,21.1c0,0-0.1,0-0.1,0c-0.1-0.1-1-0.8-0.9-1.4c0-0.2,0.1-0.3,0.2-0.3c0.2-0.1,0.5,0.1,0.7,0.2
			c-0.1-0.6-0.1-1,0.2-1.1c0.1,0,0.4-0.1,1.5,1.6c0,0.1,0,0.2,0,0.2c-0.1,0-0.2,0-0.2,0c-0.4-0.6-0.9-1.3-1.1-1.4
			c0,0.1,0,0.6,0.1,1.1c0,0.1,0,0.1-0.1,0.2c-0.1,0-0.1,0-0.2,0c-0.3-0.3-0.7-0.5-0.8-0.4c0,0,0,0,0,0c0,0.3,0.5,0.9,0.8,1.2
			c0.1,0.1,0.1,0.2,0,0.2C69.4,21.1,69.4,21.1,69.3,21.1z"/>
		<path class="st2" d="M70.9,22.8c-0.5,0-0.9-0.1-0.9-0.1c-0.1,0-0.1-0.1-0.1-0.2c0-0.1,0.1-0.1,0.2-0.1c0,0,1.3,0.3,2.3-0.3
			c0.6-0.4,1-1,1.1-2c0-0.1,0.1-0.2,0.2-0.1c0.1,0,0.2,0.1,0.1,0.2c-0.2,1-0.6,1.8-1.2,2.2C72,22.7,71.4,22.8,70.9,22.8z"/>
		<path class="st2" d="M2.2,40.5C2.1,40.5,2.1,40.4,2.2,40.5c-0.1,0-1.6-1.4-1.5-1.7c0.1-0.2,0.1-0.2,2.3,0.2c0.1,0,0.1,0.1,0.1,0.2
			c0,0.1-0.1,0.1-0.2,0.1C2.2,39.2,1.5,39,1.1,39c0.3,0.4,1,1.1,1.1,1.2c0.1,0.1,0.1,0.2,0,0.2C2.3,40.4,2.2,40.5,2.2,40.5z"/>
		<path class="st3" d="M4.7,40.5c0,0-0.2-2.6-1.5-2.1c-1.8,0.6-2.7,5.4,0.8,6.4c3.5,1,4.8-1.8,4.8-1.8l-1.9-0.4c0,0,1.3-1.2,1.2-2.2
			c-0.1-1-1.2-0.1-1.2-0.1s1.2-2.3,0.2-2.4C6.1,37.8,4.7,40.5,4.7,40.5z"/>
		<path class="st2" d="M3.1,40.2C3.1,40.2,3.1,40.2,3.1,40.2c-0.1,0-0.2-0.1-0.2-0.1C2.8,39.8,3,39.3,3.1,39c0-0.1,0.1-0.1,0.2-0.1
			c0.1,0,0.1,0.1,0.1,0.2c-0.1,0.3-0.2,0.6-0.2,0.8c0.1-0.1,0.3-0.3,0.5-0.5c0-0.1,0.1-0.1,0.2-0.1c0.1,0,0.1,0.1,0.1,0.2
			C3.8,39.7,3.5,40.2,3.1,40.2z"/>
		<path class="st2" d="M6.3,42.6c0,0-0.1,0-0.1-0.1c-0.1-0.1,0-0.2,0-0.2C6.5,42,7,41.5,7,41.1c0,0,0,0,0,0c-0.1,0-0.5,0.2-0.8,0.5
			c-0.1,0-0.1,0.1-0.2,0c-0.1,0-0.1-0.1-0.1-0.2c0.1-0.4,0.2-0.9,0.1-1.1c-0.2,0.1-0.7,0.8-1.1,1.4c0,0.1-0.2,0.1-0.2,0
			c-0.1,0-0.1-0.2,0-0.2c1.1-1.7,1.4-1.6,1.5-1.6C6.4,40,6.5,40.4,6.4,41c0.2-0.2,0.5-0.3,0.7-0.2c0.1,0,0.2,0.1,0.2,0.3
			c0.1,0.6-0.8,1.4-0.9,1.4C6.4,42.6,6.3,42.6,6.3,42.6z"/>
		<path class="st2" d="M4.7,44.3c-0.5,0-1.1-0.1-1.6-0.4c-0.7-0.4-1.1-1.2-1.2-2.2c0-0.1,0-0.2,0.1-0.2c0.1,0,0.2,0,0.2,0.1
			c0.1,0.9,0.5,1.6,1.1,2c1,0.6,2.3,0.3,2.3,0.3c0.1,0,0.2,0,0.2,0.1c0,0.1,0,0.2-0.1,0.2C5.6,44.2,5.2,44.3,4.7,44.3z"/>
		<path class="st4" d="M10.2,17.8c0,0,1-3,1.4-2.7c0.4,0.3,0.3,0.8,0.3,0.8s1.3-1.6,1.9-1.2c0.7,0.4,0,1.2,0,1.2s2.1-1.5,2.4-0.7
			c0.3,0.8-1.6,2.4-1.6,2.4s1.1-0.7,1.3,0.2c0.2,0.9-1.6,1.1-1.7,1.1c-0.1,0,0.6,0,0.4,0.6C14.5,20.1,8.7,20.4,10.2,17.8z"/>
		<path class="st4" d="M7.5,21c0,0-2.8,1.4-2.9,0.9c-0.1-0.5,0.4-0.8,0.4-0.8s-2,0.3-2.2-0.5c-0.2-0.8,0.8-0.9,0.8-0.9
			S1,19.3,1.3,18.5c0.3-0.8,2.8-0.6,2.8-0.6s-1.3-0.3-0.8-1.1c0.5-0.8,2,0.3,2,0.4c0.1,0.1-0.5-0.4,0.1-0.7
			C6.1,16.3,10.4,20.2,7.5,21z"/>
		<path class="st4" d="M10.9,20.6c0,0,2.6,1.7,2.2,2.1c-0.4,0.3-0.9,0.1-0.9,0.1s1.2,1.6,0.7,2.2c-0.6,0.6-1.2-0.3-1.2-0.3
			s0.9,2.4,0.1,2.5c-0.8,0.1-1.9-2.1-1.9-2.1s0.4,1.2-0.6,1.2c-1,0-0.7-1.9-0.7-2c0-0.1-0.1,0.6-0.7,0.2
			C7.5,24.2,8.7,18.5,10.9,20.6z"/>
		<path class="st5" d="M11.6,18.7c-0.3-0.1-0.6,0-0.9,0c0.1-1-0.5-1.9-1.5-2.1c-1-0.2-2,0.4-2.2,1.5c-0.1,0.6,0.1,1.2,0.4,1.7
			c-0.7,0.2-1.2,0.7-1.4,1.4c-0.2,1,0.4,2,1.5,2.2c1,0.2,2-0.4,2.2-1.5c0-0.1,0-0.1,0-0.2c0.3,0.3,0.6,0.5,1.1,0.6
			c1,0.2,2-0.4,2.2-1.5C13.3,19.9,12.6,18.9,11.6,18.7z M9.3,20.3C9.3,20.3,9.3,20.4,9.3,20.3C9.3,20.4,9.3,20.4,9.3,20.3
			C9.3,20.3,9.3,20.3,9.3,20.3z"/>
		<path class="st2" d="M6.9,19.8C6.9,19.8,6.8,19.8,6.9,19.8c-1.2-0.8-3.4-0.7-3.4-0.7c-0.1,0-0.2-0.1-0.2-0.2
			c0-0.1,0.1-0.2,0.2-0.2c0.1,0,2.3-0.1,3.5,0.7c0.1,0.1,0.1,0.2,0,0.2C7,19.8,7,19.8,6.9,19.8z"/>
		<path class="st2" d="M11.6,18.9c-0.1,0-0.1-0.1-0.2-0.1c0-0.1,0-0.2,0.1-0.2c0.7-0.1,1.9-1.7,2.3-2.2c0.1-0.1,0.2-0.1,0.2,0
			c0.1,0.1,0.1,0.2,0,0.2C14,16.7,12.6,18.7,11.6,18.9C11.6,18.9,11.6,18.9,11.6,18.9z"/>
		<path class="st2" d="M10.7,25.3c-0.1,0-0.2-0.1-0.2-0.2c0-0.6-0.1-2.1-0.7-2.4c-0.1,0-0.1-0.1-0.1-0.2c0-0.1,0.1-0.1,0.2-0.1
			c0.8,0.5,0.8,2.5,0.8,2.7C10.8,25.2,10.8,25.3,10.7,25.3C10.7,25.3,10.7,25.3,10.7,25.3z"/>
		<path class="st2" d="M10.7,18.7c-0.1,0-0.2,0-0.2,0.1c0,0-0.4,1-1.2,1.2c0,0-0.1,0-0.1,0c0,0-0.1-0.1-0.1-0.1
			c-0.6-0.4-1.2-0.5-1.6-0.4C7.1,19.7,7,20,7,20c0,0.1,0,0.2,0.1,0.2c0.1,0,0.2,0,0.2-0.1c0,0,0.1-0.2,0.3-0.2
			c0.2-0.1,0.7-0.1,1.3,0.3c0.9,0.5,0.6,1.7,0.6,1.7c0,0.1,0,0.2,0.1,0.2c0,0,0,0,0,0c0.1,0,0.1-0.1,0.2-0.1c0,0,0.2-1.1-0.4-1.7
			c0.9-0.3,1.3-1.3,1.3-1.4C10.9,18.9,10.8,18.8,10.7,18.7z"/>
		<path class="st6" d="M10.1,18.3c-0.1,0-0.1,0-0.2-0.1c-0.2-0.7-1-0.6-1-0.6c-0.1,0-0.2-0.1-0.2-0.2c0-0.1,0.1-0.2,0.2-0.2
			c0.4,0,1.1,0.1,1.3,0.8C10.3,18.1,10.2,18.2,10.1,18.3C10.1,18.3,10.1,18.3,10.1,18.3z"/>
		<path class="st6" d="M12.6,20.7c-0.1,0-0.1,0-0.2-0.1c-0.1-0.5-0.9-0.8-0.9-0.8c-0.1,0-0.1-0.1-0.1-0.2c0-0.1,0.1-0.1,0.2-0.1
			c0,0,0.9,0.4,1.1,1C12.7,20.6,12.7,20.7,12.6,20.7C12.6,20.7,12.6,20.7,12.6,20.7z"/>
		<path class="st6" d="M9.1,21.6c-0.1,0-0.2-0.1-0.2-0.2c0-0.1,0-0.2-0.1-0.3c-0.3-0.2-0.8-0.3-1-0.3c-0.1,0-0.2-0.1-0.2-0.2
			c0-0.1,0.1-0.2,0.2-0.2c0,0,0.9,0,1.3,0.3c0.1,0.1,0.2,0.3,0.2,0.5C9.3,21.6,9.2,21.6,9.1,21.6C9.1,21.6,9.1,21.6,9.1,21.6z"/>
		<path class="st4" d="M71.1,56.2c0,0-2.8-1.6-2.4-1.9c0.4-0.4,0.9-0.2,0.9-0.2s-1.4-1.5-0.8-2.1c0.5-0.6,1.2,0.2,1.2,0.2
			s-1.1-2.4-0.2-2.5c0.8-0.2,2.1,2,2.1,2s-0.5-1.2,0.5-1.3c0.9-0.1,0.8,1.8,0.8,1.9c0,0.1,0.1-0.6,0.6-0.3
			C74.2,52.4,73.4,58.1,71.1,56.2z"/>
		<path class="st4" d="M73.8,59.5c0,0,0.9,3,0.3,3c-0.5,0-0.7-0.5-0.7-0.5s-0.1,2.1-0.9,2.1c-0.8,0.1-0.7-1-0.7-1s-0.9,2.4-1.6,2
			c-0.7-0.5,0-2.9,0-2.9s-0.5,1.2-1.2,0.5c-0.7-0.6,0.7-1.9,0.8-1.9c0.1-0.1-0.5,0.4-0.6-0.3C68.9,60,73.5,56.4,73.8,59.5z"/>
		<path class="st4" d="M74,56c0,0,2.2-2.3,2.5-1.8c0.3,0.5-0.1,0.9-0.1,0.9s1.8-0.9,2.3-0.3c0.4,0.7-0.5,1.1-0.5,1.1
			s2.6-0.4,2.5,0.4c0,0.9-2.5,1.5-2.5,1.5s1.3-0.1,1.1,0.8c-0.2,0.9-2,0.3-2.1,0.3c-0.1-0.1,0.6,0.2,0.1,0.7
			C76.9,60.1,71.5,57.8,74,56z"/>
		<path class="st5" d="M75.2,57.4c-0.1,0-0.1,0-0.2-0.1c0.4-0.2,0.6-0.5,0.8-0.9c0.4-1-0.1-2.1-1-2.5c-1-0.4-2.1,0.1-2.5,1
			c-0.1,0.3-0.2,0.6-0.1,0.9c-0.9-0.3-2,0.2-2.3,1.1c-0.4,1,0.1,2.1,1,2.5c0.6,0.2,1.2,0.2,1.7-0.1c0,0.7,0.5,1.4,1.2,1.6
			c1,0.4,2.1-0.1,2.5-1C76.6,59,76.1,57.8,75.2,57.4z M73.4,57.5C73.5,57.5,73.5,57.5,73.4,57.5C73.5,57.6,73.5,57.6,73.4,57.5
			C73.4,57.6,73.4,57.5,73.4,57.5z"/>
		<path class="st2" d="M70.8,63.1C70.8,63.1,70.8,63.1,70.8,63.1c-0.1,0-0.2-0.1-0.2-0.2c0-0.1,0.3-2.2,1.4-3.3
			c0.1-0.1,0.2-0.1,0.2,0c0.1,0.1,0.1,0.2,0,0.2c-1,1-1.3,3.1-1.3,3.1C71,63,70.9,63.1,70.8,63.1z"/>
		<path class="st2" d="M72.3,55.2c-0.1,0-0.2-0.1-0.2-0.2c0-0.7-1.3-2.2-1.8-2.7c-0.1-0.1-0.1-0.2,0-0.2c0.1-0.1,0.2-0.1,0.2,0
			c0.2,0.2,1.9,1.9,1.9,2.9C72.4,55.1,72.4,55.2,72.3,55.2L72.3,55.2z"/>
		<path class="st2" d="M75.7,57.5c0,0-0.1,0-0.1,0c-0.1-0.1-0.1-0.2,0-0.2c0.6-0.7,2.6-0.3,2.8-0.3c0.1,0,0.1,0.1,0.1,0.2
			c0,0.1-0.1,0.2-0.2,0.1c-0.6-0.1-2.1-0.3-2.5,0.2C75.8,57.5,75.8,57.5,75.7,57.5z"/>
		<path class="st2" d="M75.2,57.3c0,0-1-0.4-1.8,0c-0.1-0.9-1-1.5-1.1-1.5c-0.1,0-0.2,0-0.2,0.1c0,0.1,0,0.2,0.1,0.2
			c0,0,0.9,0.6,0.9,1.4c0,0,0,0.1,0,0.1c0,0-0.1,0.1-0.1,0.1c-0.5,0.6-0.7,1.1-0.7,1.5c0,0.4,0.3,0.6,0.3,0.6c0,0,0.1,0,0.1,0
			c0,0,0.1,0,0.1-0.1c0.1-0.1,0-0.2,0-0.2c0,0-0.1-0.1-0.2-0.4c0-0.2,0.1-0.7,0.6-1.3c0.6-0.8,1.7-0.3,1.8-0.3c0.1,0,0.2,0,0.2-0.1
			C75.3,57.4,75.3,57.3,75.2,57.3z"/>
		<path class="st6" d="M70.5,57.6C70.4,57.6,70.4,57.6,70.5,57.6c-0.1,0-0.2-0.1-0.2-0.2c0-0.4,0.3-1.1,1.1-1.2
			c0.1,0,0.2,0.1,0.2,0.1c0,0.1-0.1,0.2-0.1,0.2c-0.7,0.1-0.8,0.9-0.8,0.9C70.6,57.5,70.5,57.6,70.5,57.6z"/>
		<path class="st6" d="M73.2,55.3C73.1,55.3,73.1,55.3,73.2,55.3C73,55.3,73,55.2,73,55.1c0,0,0.5-0.8,1.2-0.8
			c0.1,0,0.2,0.1,0.2,0.2c0,0.1-0.1,0.2-0.2,0.2c-0.5,0-0.9,0.7-0.9,0.7C73.3,55.3,73.2,55.3,73.2,55.3z"/>
		<path class="st6" d="M73.6,59.3C73.6,59.3,73.6,59.3,73.6,59.3c-0.1,0-0.2-0.1-0.2-0.2c0,0,0.1-0.9,0.6-1.2
			c0.2-0.1,0.3-0.2,0.5-0.1c0.1,0,0.1,0.1,0.1,0.2c0,0.1-0.1,0.1-0.2,0.1c-0.1,0-0.2,0-0.3,0.1c-0.3,0.2-0.4,0.8-0.4,1
			C73.7,59.3,73.7,59.3,73.6,59.3z"/>
		<path class="st2" d="M27.5,72.2c0,0-0.1,0-0.1-0.1c0,0-0.5-0.5-1.2-0.2c-0.1,0-0.2,0-0.2-0.1c0-0.1,0-0.2,0.1-0.2
			c0.8-0.4,1.4,0,1.6,0.3c0.1,0.1,0.1,0.2,0,0.2C27.6,72.1,27.6,72.2,27.5,72.2z"/>
		<path class="st2" d="M26.2,73.1c0,0-0.1,0-0.1-0.1c0,0-0.5-0.5-1.2-0.2c-0.1,0-0.2,0-0.2-0.1c0-0.1,0-0.2,0.1-0.2
			c0.8-0.4,1.4,0,1.6,0.3c0.1,0.1,0.1,0.2,0,0.2C26.3,73.1,26.3,73.1,26.2,73.1z"/>
		<path class="st2" d="M24,72.9c0,0-0.1,0-0.1-0.1c0,0-0.5-0.5-1.2-0.2c-0.1,0-0.2,0-0.2-0.1c0-0.1,0-0.2,0.1-0.2
			c0.8-0.4,1.4,0,1.6,0.3c0.1,0.1,0.1,0.2,0,0.2C24.1,72.9,24.1,72.9,24,72.9z"/>
		<path class="st2" d="M21.9,72.1c0,0-0.1,0-0.1-0.1c-0.1-0.1,0-0.2,0-0.2c0.7-0.5,1.4-0.3,1.6-0.1c0.1,0.1,0.1,0.2,0,0.2
			c-0.1,0.1-0.2,0.1-0.2,0c0,0-0.6-0.4-1.2,0.1C21.9,72,21.9,72.1,21.9,72.1z"/>
		<path class="st2" d="M24.2,71.9c-0.1,0-0.1,0-0.1-0.1c-0.1-0.1,0-0.2,0-0.2c0.7-0.5,1.4-0.3,1.6,0c0.1,0.1,0.1,0.2,0,0.2
			c-0.1,0.1-0.2,0.1-0.2,0C25.5,71.8,25,71.4,24.2,71.9C24.3,71.9,24.3,71.9,24.2,71.9z"/>
		<path class="st2" d="M21.4,73.8c-0.1,0-0.1,0-0.1-0.1c-0.1-0.1,0-0.2,0-0.2c0.7-0.5,1.4-0.3,1.6,0c0.1,0.1,0.1,0.2,0,0.2
			c-0.1,0.1-0.2,0.1-0.2,0C22.7,73.7,22.1,73.3,21.4,73.8C21.4,73.8,21.4,73.8,21.4,73.8z"/>
		<path class="st2" d="M20,73.1c0,0-0.1,0-0.1,0c-0.1-0.1-0.1-0.2,0-0.2c0.6-0.6,1.3-0.5,1.6-0.3c0.1,0,0.1,0.1,0.1,0.2
			c0,0.1-0.1,0.1-0.2,0.1c0,0-0.6-0.3-1.2,0.3C20.1,73,20,73.1,20,73.1z"/>
		<path class="st2" d="M58.1,71.6c0,0-0.1,0-0.1-0.1c0,0-0.5-0.5-1.2-0.2c-0.1,0-0.2,0-0.2-0.1c0-0.1,0-0.2,0.1-0.2
			c0.8-0.4,1.4,0,1.6,0.3c0.1,0.1,0.1,0.2,0,0.2C58.1,71.5,58.1,71.6,58.1,71.6z"/>
		<path class="st2" d="M56.8,72.5c0,0-0.1,0-0.1-0.1c0,0-0.5-0.5-1.2-0.2c-0.1,0-0.2,0-0.2-0.1c0-0.1,0-0.2,0.1-0.2
			c0.8-0.4,1.4,0,1.6,0.3c0.1,0.1,0.1,0.2,0,0.2C56.9,72.5,56.8,72.5,56.8,72.5z"/>
		<path class="st2" d="M54.6,72.3c0,0-0.1,0-0.1-0.1c0,0-0.5-0.5-1.2-0.2c-0.1,0-0.2,0-0.2-0.1c0-0.1,0-0.2,0.1-0.2
			c0.8-0.4,1.4,0,1.6,0.3c0.1,0.1,0.1,0.2,0,0.2C54.7,72.3,54.6,72.3,54.6,72.3z"/>
		<path class="st2" d="M52.4,71.5c0,0-0.1,0-0.1-0.1c-0.1-0.1,0-0.2,0-0.2c0.7-0.5,1.4-0.3,1.6-0.1c0.1,0.1,0.1,0.2,0,0.2
			c-0.1,0.1-0.2,0.1-0.2,0c0,0-0.6-0.4-1.2,0.1C52.5,71.4,52.4,71.5,52.4,71.5z"/>
		<path class="st2" d="M54.8,71.3c-0.1,0-0.1,0-0.1-0.1c-0.1-0.1,0-0.2,0-0.2c0.7-0.5,1.4-0.3,1.6,0c0.1,0.1,0.1,0.2,0,0.2
			c-0.1,0.1-0.2,0.1-0.2,0C56.1,71.2,55.5,70.8,54.8,71.3C54.8,71.3,54.8,71.3,54.8,71.3z"/>
		<path class="st2" d="M51.9,73.2c-0.1,0-0.1,0-0.1-0.1c-0.1-0.1,0-0.2,0-0.2c0.7-0.5,1.4-0.3,1.6,0c0.1,0.1,0.1,0.2,0,0.2
			c-0.1,0.1-0.2,0.1-0.2,0C53.2,73.1,52.7,72.7,51.9,73.2C52,73.2,52,73.2,51.9,73.2z"/>
		<path class="st2" d="M50.5,72.5c0,0-0.1,0-0.1,0c-0.1-0.1-0.1-0.2,0-0.2c0.6-0.6,1.3-0.5,1.6-0.3c0.1,0,0.1,0.1,0.1,0.2
			c0,0.1-0.1,0.1-0.2,0.1c0,0-0.6-0.3-1.2,0.3C50.6,72.4,50.6,72.5,50.5,72.5z"/>
		<path class="st2" d="M6.3,67.5c-0.1,0-0.3,0-0.4,0c-0.1,0-0.2-0.1-0.1-0.2c0-0.1,0.1-0.2,0.2-0.1c0.2,0,0.4,0,0.6,0
			c0.1,0,0.2,0.1,0.2,0.1c0,0.1-0.1,0.2-0.1,0.2C6.5,67.5,6.4,67.5,6.3,67.5z M7.3,67.3c-0.1,0-0.1,0-0.2-0.1c0-0.1,0-0.2,0.1-0.2
			c0.2-0.1,0.4-0.2,0.6-0.3c0.1,0,0.2,0,0.2,0.1c0,0.1,0,0.2-0.1,0.2C7.7,67.1,7.5,67.2,7.3,67.3C7.3,67.3,7.3,67.3,7.3,67.3z
			 M5.3,67.3C5.3,67.3,5.3,67.2,5.3,67.3c-0.3-0.1-0.5-0.2-0.7-0.4c-0.1-0.1-0.1-0.2,0-0.2c0.1-0.1,0.2-0.1,0.2,0
			c0.2,0.1,0.4,0.2,0.5,0.3c0.1,0,0.1,0.1,0.1,0.2C5.5,67.2,5.4,67.3,5.3,67.3z M8.4,66.6c0,0-0.1,0-0.1-0.1c-0.1-0.1,0-0.2,0-0.2
			c0.2-0.1,0.3-0.3,0.5-0.4c0.1-0.1,0.2-0.1,0.2,0c0.1,0.1,0.1,0.2,0,0.2c-0.2,0.2-0.3,0.3-0.5,0.5C8.5,66.6,8.4,66.6,8.4,66.6z
			 M4.3,66.5c0,0-0.1,0-0.1-0.1c-0.1-0.2-0.3-0.3-0.4-0.5c-0.1-0.1,0-0.2,0-0.2c0.1-0.1,0.2,0,0.2,0c0.1,0.2,0.3,0.3,0.4,0.5
			c0.1,0.1,0.1,0.2,0,0.2C4.4,66.5,4.3,66.5,4.3,66.5z M9.3,65.7C9.3,65.7,9.2,65.7,9.3,65.7c-0.2-0.1-0.2-0.2-0.1-0.3
			c0.1-0.2,0.2-0.4,0.4-0.5c0-0.1,0.1-0.1,0.2-0.1c0.1,0,0.1,0.1,0.1,0.2c-0.1,0.2-0.2,0.4-0.4,0.6C9.4,65.7,9.4,65.7,9.3,65.7z
			 M3.5,65.4c-0.1,0-0.1,0-0.1-0.1c-0.1-0.2-0.2-0.4-0.3-0.6c0-0.1,0-0.2,0.1-0.2c0.1,0,0.2,0,0.2,0.1c0.1,0.2,0.2,0.4,0.3,0.6
			C3.7,65.3,3.7,65.4,3.5,65.4C3.6,65.4,3.6,65.4,3.5,65.4z M3.1,64.2c-0.1,0-0.1-0.1-0.2-0.1c0-0.2-0.1-0.4-0.1-0.6l0.2,0l0.2,0
			c0,0.2,0,0.4,0.1,0.6C3.3,64.1,3.2,64.2,3.1,64.2C3.1,64.2,3.1,64.2,3.1,64.2z M3.1,62.9C3.1,62.9,3.1,62.9,3.1,62.9
			c-0.1,0-0.2-0.1-0.2-0.2C3,62.5,3,62.2,3.1,62c0-0.1,0.1-0.1,0.2-0.1c0.1,0,0.1,0.1,0.1,0.2c-0.1,0.2-0.1,0.4-0.2,0.6
			C3.2,62.8,3.2,62.9,3.1,62.9z M3.5,61.7C3.5,61.7,3.5,61.7,3.5,61.7c-0.2-0.1-0.2-0.2-0.1-0.2c0.1-0.2,0.2-0.4,0.4-0.6
			c0.1-0.1,0.2-0.1,0.2,0C4.1,60.9,4.1,61,4,61c-0.1,0.2-0.2,0.3-0.3,0.5C3.7,61.6,3.6,61.7,3.5,61.7z M6.8,61.3
			C6.8,61.3,6.8,61.3,6.8,61.3c-0.2,0-0.5,0-0.7-0.1C6,61.2,6,61.1,6,61c0-0.1,0.1-0.1,0.2-0.1C6.4,61,6.6,61,6.8,61
			C6.9,61,7,61.1,7,61.2C7,61.3,6.9,61.3,6.8,61.3z M7.5,61.3c-0.1,0-0.1-0.1-0.2-0.1c0-0.1,0-0.2,0.1-0.2c0.2,0,0.4-0.1,0.5-0.3
			c0.1-0.1,0.2-0.1,0.2,0c0.1,0.1,0.1,0.2,0,0.2C8,61.1,7.8,61.2,7.5,61.3C7.5,61.3,7.5,61.3,7.5,61.3z M5.5,61
			C5.5,61,5.5,61,5.5,61c-0.3-0.1-0.5-0.2-0.7-0.3c-0.1,0-0.1-0.1-0.1-0.2c0-0.1,0.1-0.1,0.2-0.1c0.2,0.1,0.4,0.2,0.6,0.3
			c0.1,0,0.1,0.1,0.1,0.2C5.7,61,5.6,61,5.5,61z M4.3,60.6c0,0-0.1,0-0.1,0c-0.1-0.1-0.1-0.2,0-0.2c0,0,0,0,0,0
			c-0.2-0.1-0.3-0.3-0.5-0.4c-0.1-0.1-0.1-0.2,0-0.2c0.1-0.1,0.2-0.1,0.2,0c0.1,0.1,0.3,0.3,0.5,0.4c0.1-0.1,0.2-0.1,0.2-0.2
			c0.1-0.1,0.2,0,0.2,0c0.1,0.1,0,0.2,0,0.2c-0.2,0.1-0.3,0.3-0.5,0.4C4.4,60.6,4.4,60.6,4.3,60.6z M8.1,60.3c-0.1,0-0.1,0-0.2-0.1
			c0-0.1-0.1-0.2-0.1-0.3c0-0.1-0.1-0.2-0.2-0.3c-0.1-0.1-0.1-0.2,0-0.2c0.1-0.1,0.2-0.1,0.2,0c0.1,0.1,0.2,0.2,0.2,0.3
			c0.1,0.1,0.1,0.2,0.1,0.3C8.3,60.2,8.2,60.3,8.1,60.3C8.1,60.3,8.1,60.3,8.1,60.3z M5.4,59.8c-0.1,0-0.1,0-0.1-0.1
			c0-0.1,0-0.2,0.1-0.2c0.2-0.1,0.4-0.2,0.6-0.3c0.1,0,0.2,0,0.2,0.1c0,0.1,0,0.2-0.1,0.2C5.8,59.6,5.6,59.7,5.4,59.8
			C5.4,59.8,5.4,59.8,5.4,59.8z M3.5,59.4c-0.1,0-0.1,0-0.1-0.1c-0.1-0.2-0.2-0.4-0.3-0.6c0-0.1,0-0.2,0.1-0.2c0.1,0,0.2,0,0.2,0.1
			c0.1,0.2,0.2,0.4,0.3,0.6C3.7,59.2,3.7,59.3,3.5,59.4C3.6,59.4,3.5,59.4,3.5,59.4z M7.2,59.4C7.2,59.4,7.2,59.4,7.2,59.4
			c-0.2-0.1-0.4-0.1-0.6-0.1c-0.1,0-0.2-0.1-0.2-0.1c0-0.1,0.1-0.2,0.1-0.2c0.3,0,0.5,0,0.7,0.1c0.1,0,0.1,0.1,0.1,0.2
			C7.4,59.4,7.3,59.4,7.2,59.4z M3,58.2c-0.1,0-0.1-0.1-0.2-0.1c0-0.2-0.1-0.4-0.1-0.7c0-0.1,0.1-0.2,0.2-0.2c0.1,0,0.2,0.1,0.2,0.2
			c0,0.2,0,0.4,0.1,0.6C3.2,58.1,3.1,58.2,3,58.2C3,58.2,3,58.2,3,58.2z M2.9,56.9C2.9,56.9,2.9,56.9,2.9,56.9
			c-0.1,0-0.2-0.1-0.2-0.2c0-0.2,0-0.5,0.1-0.7c0-0.1,0.1-0.2,0.2-0.1c0.1,0,0.2,0.1,0.1,0.2c0,0.2-0.1,0.4-0.1,0.6
			C3.1,56.8,3,56.9,2.9,56.9z M3.1,55.6C3.1,55.6,3.1,55.6,3.1,55.6C3,55.6,3,55.5,3,55.4C3,55.2,3.1,55,3.2,54.8
			c0-0.1,0.1-0.1,0.2-0.1c0.1,0,0.1,0.1,0.1,0.2c-0.1,0.2-0.2,0.4-0.2,0.6C3.3,55.6,3.2,55.6,3.1,55.6z M5.1,54.5
			C5.1,54.5,5.1,54.5,5.1,54.5c-0.2,0-0.5-0.1-0.7-0.2c-0.1,0-0.1-0.1-0.1-0.2c0-0.1,0.1-0.1,0.2-0.1c0.2,0.1,0.4,0.1,0.6,0.1
			c0.1,0,0.2,0.1,0.1,0.2C5.2,54.5,5.2,54.5,5.1,54.5z M5.7,54.5c-0.1,0-0.1-0.1-0.2-0.1c0-0.1,0-0.2,0.1-0.2c0.2,0,0.4-0.1,0.6-0.2
			c0.1,0,0.2,0,0.2,0c0,0.1,0,0.2,0,0.2C6.3,54.4,6,54.5,5.7,54.5C5.7,54.5,5.7,54.5,5.7,54.5z M3.7,54.4
			C3.7,54.4,3.6,54.4,3.7,54.4c-0.2-0.1-0.2-0.2-0.1-0.3c0-0.1,0.1-0.1,0.1-0.2c-0.2-0.1-0.3-0.3-0.5-0.4c-0.1-0.1-0.1-0.2,0-0.2
			c0.1-0.1,0.2-0.1,0.2,0c0.1,0.1,0.3,0.3,0.4,0.4c0,0,0.1-0.1,0.1-0.1c0.1-0.1,0.2-0.1,0.2,0c0.1,0.1,0.1,0.2,0,0.2
			c-0.1,0.1-0.3,0.3-0.4,0.5C3.8,54.4,3.7,54.4,3.7,54.4z M6.5,53.8c0,0-0.1,0-0.1-0.1c0,0,0,0,0,0c-0.1-0.1-0.3-0.2-0.4-0.2
			c-0.1,0-0.1-0.1-0.1-0.2c0-0.1,0.1-0.1,0.2-0.1c0.2,0.1,0.4,0.2,0.6,0.3c0,0,0,0.1,0.1,0.1c0.1,0.1,0,0.2,0,0.2
			C6.6,53.7,6.5,53.8,6.5,53.8z M4.7,53.6c-0.1,0-0.1,0-0.1-0.1c0-0.1,0-0.2,0.1-0.2c0.2-0.1,0.4-0.2,0.7-0.2c0.1,0,0.2,0.1,0.2,0.1
			c0,0.1-0.1,0.2-0.1,0.2C5.1,53.4,4.9,53.5,4.7,53.6C4.7,53.6,4.7,53.6,4.7,53.6z M3,53.1c-0.1,0-0.1,0-0.1-0.1
			c-0.1-0.2-0.2-0.4-0.3-0.6c0-0.1,0-0.2,0.1-0.2c0.1,0,0.2,0,0.2,0.1c0.1,0.2,0.2,0.4,0.3,0.6C3.2,52.9,3.1,53,3,53.1
			C3,53.1,3,53.1,3,53.1z M2.5,51.9c-0.1,0-0.1-0.1-0.2-0.1c0-0.1,0-0.1,0-0.2c0-0.2-0.1-0.3-0.1-0.5c0-0.1,0.1-0.2,0.1-0.2
			c0.1,0,0.2,0.1,0.2,0.1c0,0.1,0,0.3,0.1,0.5c0,0.1,0,0.1,0,0.2C2.7,51.8,2.6,51.9,2.5,51.9C2.5,51.9,2.5,51.9,2.5,51.9z M2.4,50.6
			c-0.1,0-0.2-0.1-0.2-0.2l0,0c0-0.2,0-0.4,0-0.6c0-0.1,0.1-0.2,0.2-0.1c0.1,0,0.2,0.1,0.1,0.2c0,0.2,0,0.4,0,0.6l0,0
			C2.5,50.5,2.5,50.6,2.4,50.6C2.4,50.6,2.4,50.6,2.4,50.6z M2.5,49.3C2.5,49.3,2.5,49.3,2.5,49.3c-0.1,0-0.2-0.1-0.2-0.2
			c0.1-0.2,0.2-0.4,0.3-0.6c0-0.1,0.1-0.1,0.2-0.1c0.1,0,0.1,0.1,0.1,0.2c-0.1,0.2-0.2,0.4-0.2,0.6C2.7,49.2,2.6,49.3,2.5,49.3z
			 M3.1,48.1c0,0-0.1,0-0.1,0C3,48,3,47.9,3,47.9c0.1-0.2,0.3-0.3,0.5-0.5c0.1-0.1,0.2,0,0.2,0c0.1,0.1,0,0.2,0,0.2
			c-0.2,0.1-0.3,0.3-0.4,0.4C3.2,48.1,3.2,48.1,3.1,48.1z M4.2,47.3c-0.1,0-0.1,0-0.1-0.1c0-0.1,0-0.2,0.1-0.2
			c0.4-0.2,0.6-0.2,0.7-0.2c0.1,0,0.2,0,0.2,0.1c0,0.1,0,0.2-0.1,0.2C4.8,47.1,4.6,47.1,4.2,47.3C4.2,47.3,4.2,47.3,4.2,47.3z"/>
		<path class="st2" d="M73.8,47.7C73.8,47.7,73.8,47.7,73.8,47.7c-0.2,0-0.5-0.1-0.7-0.1c-0.1,0-0.1-0.1-0.1-0.2
			c0-0.1,0.1-0.1,0.2-0.1c0.2,0.1,0.4,0.1,0.6,0.1c0.1,0,0.2,0.1,0.1,0.2C73.9,47.7,73.9,47.7,73.8,47.7z M74.4,47.7
			c-0.1,0-0.1-0.1-0.2-0.1c0-0.1,0-0.2,0.1-0.2c0.2,0,0.4-0.1,0.6-0.2c0.1,0,0.2,0,0.2,0.1c0,0.1,0,0.2-0.1,0.2
			C74.9,47.6,74.7,47.7,74.4,47.7C74.4,47.7,74.4,47.7,74.4,47.7z M72.5,47.3C72.5,47.3,72.5,47.3,72.5,47.3
			c-0.3-0.1-0.5-0.3-0.6-0.4c-0.1-0.1-0.1-0.2,0-0.2c0.1-0.1,0.2-0.1,0.2,0c0.2,0.1,0.3,0.3,0.5,0.4c0.1,0,0.1,0.1,0.1,0.2
			C72.6,47.3,72.6,47.3,72.5,47.3z M75.6,47.2c-0.1,0-0.1,0-0.1-0.1c-0.1-0.1,0-0.2,0-0.2c0.2-0.1,0.3-0.3,0.5-0.4
			c0.1-0.1,0.2-0.1,0.2,0c0.1,0.1,0.1,0.2,0,0.2C76.1,46.9,75.9,47,75.6,47.2C75.7,47.2,75.6,47.2,75.6,47.2z M71.6,46.4
			c0,0-0.1,0-0.1-0.1c-0.1-0.2-0.3-0.4-0.4-0.6c0-0.1,0-0.2,0.1-0.2c0.1,0,0.2,0,0.2,0.1c0.1,0.2,0.2,0.4,0.3,0.5
			c0.1,0.1,0,0.2,0,0.2C71.6,46.4,71.6,46.4,71.6,46.4z M76.5,46.3c0,0-0.1,0-0.1,0c-0.1-0.1-0.1-0.2,0-0.2c0.1-0.1,0.2-0.2,0.2-0.3
			c0-0.1,0.1-0.1,0.1-0.2c0-0.1,0.2-0.1,0.2-0.1c0.1,0,0.1,0.2,0.1,0.2c0,0.1-0.1,0.1-0.1,0.2c-0.1,0.1-0.2,0.2-0.3,0.3
			C76.6,46.2,76.6,46.3,76.5,46.3z M77.2,45.2C77.2,45.2,77.2,45.2,77.2,45.2c-0.1,0-0.2-0.1-0.2-0.2c0.1-0.2,0.1-0.4,0.2-0.6
			c0-0.1,0.1-0.1,0.2-0.1c0.1,0,0.1,0.1,0.1,0.2c0,0.2-0.1,0.4-0.2,0.7C77.4,45.1,77.3,45.2,77.2,45.2z M77.5,43.9
			c-0.1,0-0.2-0.1-0.2-0.2c0-0.2,0-0.4-0.1-0.6c0-0.1,0-0.2,0.1-0.2c0.1,0,0.2,0,0.2,0.1c0.1,0.2,0.1,0.5,0.1,0.7
			C77.6,43.8,77.6,43.9,77.5,43.9C77.5,43.9,77.5,43.9,77.5,43.9z M77.1,42.6c-0.1,0-0.1,0-0.1-0.1c-0.1-0.2-0.2-0.4-0.3-0.5
			c-0.1-0.1,0-0.2,0-0.2c0.1-0.1,0.2,0,0.2,0c0.1,0.2,0.3,0.4,0.4,0.6C77.3,42.5,77.3,42.6,77.1,42.6C77.2,42.6,77.1,42.6,77.1,42.6
			z M73.9,41.9c-0.1,0-0.2-0.1-0.2-0.2c0-0.1,0.1-0.2,0.2-0.2c0.2,0,0.4,0,0.6-0.1c0.1,0,0.2,0,0.2,0.1c0,0.1,0,0.2-0.1,0.2
			C74.4,41.8,74.1,41.9,73.9,41.9C73.9,41.9,73.9,41.9,73.9,41.9z M73.3,41.7C73.3,41.7,73.2,41.7,73.3,41.7
			c-0.3-0.2-0.4-0.4-0.4-0.7c0,0,0-0.1,0-0.1c0-0.1,0.1-0.2,0.2-0.1c0.1,0,0.2,0.1,0.1,0.2c0,0,0,0,0,0.1c0,0.2,0.1,0.3,0.2,0.4
			c0.1,0.1,0.1,0.2,0,0.2C73.4,41.7,73.4,41.7,73.3,41.7z M76.3,41.6c0,0-0.1,0-0.1,0c-0.1-0.1-0.3-0.3-0.4-0.4
			c-0.2,0.1-0.3,0.2-0.5,0.3c-0.1,0-0.2,0-0.2-0.1c0-0.1,0-0.2,0.1-0.2c0.2-0.1,0.4-0.2,0.5-0.3c0.1,0,0.1,0,0.2,0c0,0,0.1,0,0.1,0
			c0.2,0.1,0.4,0.3,0.5,0.4c0.1,0.1,0.1,0.2,0,0.2C76.4,41.6,76.4,41.6,76.3,41.6z M75.2,40.8C75.2,40.8,75.2,40.8,75.2,40.8
			c-0.3-0.1-0.5-0.2-0.7-0.3c-0.1,0-0.1-0.1-0.1-0.2c0-0.1,0.1-0.1,0.2-0.1c0.2,0.1,0.4,0.2,0.6,0.3c0.1,0,0.1,0.1,0.1,0.2
			C75.4,40.8,75.3,40.8,75.2,40.8z M76.3,40.8c0,0-0.1,0-0.1-0.1c-0.1-0.1-0.1-0.2,0-0.2c0.2-0.1,0.3-0.3,0.5-0.4
			c0.1-0.1,0.2-0.1,0.2,0c0.1,0.1,0.1,0.2,0,0.2c-0.2,0.2-0.3,0.3-0.5,0.5C76.3,40.7,76.3,40.8,76.3,40.8z M73.4,40.6
			c-0.1,0-0.1,0-0.1-0.1c0-0.1,0-0.2,0.1-0.2c0.2-0.1,0.4-0.2,0.6-0.2c0,0,0.1,0,0.1,0c0.1,0,0.2,0.1,0.2,0.2c0,0.1-0.1,0.2-0.2,0.2
			c0,0-0.1,0-0.1,0C73.7,40.5,73.6,40.5,73.4,40.6C73.4,40.6,73.4,40.6,73.4,40.6z M77.2,39.8c0,0-0.1,0-0.1,0
			c-0.1-0.1-0.1-0.2,0-0.2c0.1-0.2,0.3-0.3,0.4-0.5c0.1-0.1,0.2-0.1,0.2,0c0.1,0.1,0.1,0.2,0,0.2c-0.1,0.2-0.3,0.4-0.4,0.5
			C77.3,39.8,77.2,39.8,77.2,39.8z M77.9,38.7C77.9,38.7,77.9,38.7,77.9,38.7c-0.2-0.1-0.2-0.2-0.1-0.3c0.1-0.1,0.2-0.3,0.2-0.4
			c0-0.1,0.1-0.1,0.1-0.2c0-0.1,0.1-0.1,0.2-0.1c0.1,0,0.1,0.1,0.1,0.2c0,0.1-0.1,0.1-0.1,0.2c-0.1,0.1-0.2,0.3-0.2,0.4
			C78,38.7,78,38.7,77.9,38.7z M78.5,37.6C78.5,37.6,78.5,37.6,78.5,37.6c-0.1,0-0.2-0.1-0.2-0.2c0.1-0.2,0.1-0.4,0.1-0.6
			c0-0.1,0.1-0.2,0.2-0.1c0.1,0,0.2,0.1,0.1,0.2c0,0.2-0.1,0.5-0.1,0.7C78.6,37.5,78.6,37.6,78.5,37.6z M78.6,36.3
			c-0.1,0-0.2-0.1-0.2-0.1c0-0.2-0.1-0.4-0.1-0.6c0-0.1,0-0.2,0.1-0.2c0.1,0,0.2,0,0.2,0.1c0.1,0.2,0.1,0.4,0.2,0.7
			C78.8,36.2,78.7,36.2,78.6,36.3C78.6,36.3,78.6,36.3,78.6,36.3z M78.2,35c-0.1,0-0.1,0-0.1-0.1c-0.1-0.2-0.2-0.4-0.4-0.5
			c-0.1-0.1,0-0.2,0-0.2c0.1-0.1,0.2,0,0.2,0c0.1,0.2,0.3,0.4,0.4,0.6C78.4,34.9,78.4,35,78.2,35C78.3,35,78.2,35,78.2,35z M77.4,34
			c0,0-0.1,0-0.1,0c-0.2-0.1-0.3-0.3-0.5-0.4c-0.1-0.1-0.1-0.2,0-0.2c0.1-0.1,0.2-0.1,0.2,0c0.2,0.1,0.4,0.3,0.5,0.4
			c0.1,0.1,0.1,0.2,0,0.2C77.5,34,77.4,34,77.4,34z M73.5,33.8c-0.3,0-0.5-0.2-0.5-0.6c0-0.1,0.1-0.2,0.2-0.2c0.1,0,0.2,0.1,0.2,0.2
			c0,0.3,0.1,0.3,0.2,0.3c0.1,0,0.2,0.1,0.2,0.2C73.6,33.7,73.6,33.8,73.5,33.8C73.5,33.8,73.5,33.8,73.5,33.8z M74.1,33.5
			c-0.1,0-0.1,0-0.1-0.1c0-0.1,0-0.2,0-0.2c0.2-0.1,0.3-0.2,0.5-0.4c0.1-0.1,0.2-0.1,0.2,0c0.1,0.1,0.1,0.2,0,0.2
			C74.5,33.2,74.4,33.4,74.1,33.5C74.2,33.5,74.1,33.5,74.1,33.5z M76.3,33.2C76.3,33.2,76.3,33.2,76.3,33.2
			c-0.3-0.1-0.5-0.2-0.6-0.3c-0.1,0-0.1-0.1-0.1-0.2c0-0.1,0.1-0.1,0.2-0.1c0.2,0.1,0.4,0.2,0.6,0.3c0.1,0,0.1,0.1,0.1,0.2
			C76.5,33.2,76.4,33.2,76.3,33.2z M73.3,32.7c0,0-0.1,0-0.1,0c-0.1-0.1-0.1-0.2,0-0.2c0.2-0.2,0.4-0.3,0.7-0.3
			c0.1,0,0.2,0.1,0.2,0.1c0,0.1-0.1,0.2-0.1,0.2c-0.2,0-0.4,0.1-0.5,0.2C73.4,32.7,73.3,32.7,73.3,32.7z M75.2,32.7
			C75.1,32.7,75.1,32.7,75.2,32.7c-0.1,0-0.1,0-0.1,0c0,0,0,0-0.1,0c-0.2,0-0.3-0.1-0.5-0.1c-0.1,0-0.2-0.1-0.1-0.2
			c0-0.1,0.1-0.1,0.2-0.1c0.1,0,0.3,0.1,0.4,0.1c0.1-0.1,0.2-0.3,0.3-0.4c0-0.1,0.1-0.1,0.2-0.1c0.1,0,0.1,0.1,0.1,0.2
			c-0.1,0.1-0.2,0.3-0.3,0.4c0,0,0,0.1,0,0.1C75.3,32.6,75.2,32.7,75.2,32.7z M75.7,31.5C75.7,31.5,75.6,31.5,75.7,31.5
			c-0.1,0-0.2-0.1-0.2-0.2c0.1-0.2,0.2-0.4,0.2-0.6c0-0.1,0.1-0.1,0.2-0.1c0.1,0,0.1,0.1,0.1,0.2c-0.1,0.2-0.1,0.4-0.2,0.6
			C75.8,31.5,75.8,31.5,75.7,31.5z M76.1,30.2C76.1,30.2,76,30.2,76.1,30.2c-0.1,0-0.2-0.1-0.2-0.2c0-0.2,0.1-0.4,0.1-0.6
			c0-0.1,0.1-0.2,0.2-0.2c0.1,0,0.2,0.1,0.2,0.2c0,0.2,0,0.4-0.1,0.7C76.2,30.2,76.1,30.2,76.1,30.2z M76.1,28.9
			c-0.1,0-0.2-0.1-0.2-0.1c0-0.2-0.1-0.4-0.1-0.6c0-0.1,0-0.2,0.1-0.2c0.1,0,0.2,0,0.2,0.1c0.1,0.2,0.1,0.4,0.1,0.7
			C76.3,28.8,76.2,28.9,76.1,28.9C76.2,28.9,76.1,28.9,76.1,28.9z M75.7,27.7c-0.1,0-0.1,0-0.1-0.1c-0.1-0.2-0.2-0.3-0.4-0.5
			c-0.1-0.1-0.1-0.2,0-0.2c0.1-0.1,0.2-0.1,0.2,0c0.2,0.2,0.3,0.4,0.4,0.5C75.9,27.5,75.9,27.6,75.7,27.7
			C75.8,27.7,75.8,27.7,75.7,27.7z M74.8,26.8C74.8,26.8,74.8,26.7,74.8,26.8c-0.3-0.1-0.4-0.2-0.6-0.3c-0.1,0-0.1-0.1-0.1-0.2
			c0-0.1,0.1-0.1,0.2-0.1c0.2,0.1,0.4,0.2,0.6,0.3c0.1,0.1,0.1,0.2,0,0.2C74.9,26.7,74.9,26.8,74.8,26.8z M73.7,26.2
			C73.6,26.2,73.6,26.2,73.7,26.2c-0.2-0.1-0.5-0.1-0.7-0.2c-0.1,0-0.1-0.1-0.1-0.2c0-0.1,0.1-0.1,0.2-0.1c0.2,0,0.4,0.1,0.7,0.2
			c0.1,0,0.1,0.1,0.1,0.2C73.8,26.1,73.7,26.2,73.7,26.2z M72.4,25.9C72.4,25.9,72.4,25.9,72.4,25.9c-0.4,0-0.7-0.1-0.7-0.1
			c-0.1,0-0.2-0.1-0.2-0.2c0-0.1,0.1-0.2,0.2-0.2c0,0,0.3,0,0.7,0.1c0.1,0,0.2,0.1,0.1,0.2C72.5,25.8,72.5,25.9,72.4,25.9z"/>
		<path class="st7" d="M65.1,35.8c0,0-3.5-5.9-2.1-5.6c1.4,0.3,2.5,4,2.5,4s0.2-7.4,1.1-6.3c0.9,1.1,0,4.9,0,4.9s0-6.1,1.2-4.9
			c1.2,1.2,0,5.4,0,5.4s1.2-5.1,1.7-4.2c0.6,1-0.8,5.2-0.8,5.2s1.9-3.3,2.3-2.5c0.4,0.7-3.2,5.2-3.2,5.2v3.2l-3-0.5L65.1,35.8z"/>
		<path class="st2" d="M66.8,36.3C66.8,36.3,66.8,36.3,66.8,36.3c-0.1,0-0.2-0.1-0.2-0.2c0.1-0.3,0.2-1.1-0.1-1.5
			c-0.2-0.2-0.5-0.2-1-0.1c-0.1,0-0.2,0-0.2-0.1c0-0.1,0-0.2,0.1-0.2c0.6-0.2,1-0.1,1.3,0.2c0.6,0.6,0.2,1.7,0.2,1.8
			C67,36.2,66.9,36.3,66.8,36.3z"/>
		<path class="st2" d="M66.6,33.1c-0.1,0-0.2-0.1-0.2-0.2c0-0.7,0.1-2.6,0.1-2.7c0-0.1,0.1-0.2,0.2-0.2c0.1,0,0.2,0.1,0.2,0.2
			c0,0-0.1,2-0.1,2.6C66.8,33,66.7,33.1,66.6,33.1C66.6,33.1,66.6,33.1,66.6,33.1z"/>
		<path class="st2" d="M67.8,33.5C67.7,33.5,67.7,33.5,67.8,33.5c-0.1,0-0.2-0.1-0.2-0.2l0.5-2.9c0-0.1,0.1-0.1,0.2-0.1
			c0.1,0,0.1,0.1,0.1,0.2l-0.5,2.9C67.9,33.5,67.8,33.5,67.8,33.5z"/>
		<path class="st8" d="M63.8,36.7c0,0,0.1,10-0.6,10.3S55.8,43,55.8,43L40,44.2l-15.8,1.3c0,0-14.9,6.8-15,9
			c-0.1,2.3,7.3,6.4,7.3,6.4l3.5-3.6l-6.7-2.5l9-3.2c-1.8,6.5-2.4,12-2.4,12l12.7-0.2l3.4,9.1l4-0.3l0.8-8.9l1.3,0l0.8,9l4,0.3
			l3.5-9.4l13.7-0.2c0,0-2-7.2-5.7-14.9c2.8,0.8,6.4,1.9,7,2.1c1,0.3,3.6-11.9,3.6-11.9L63.8,36.7z"/>
		<path class="st9" d="M38.1,41.4l1.2,20.7l-20.5,0.1l0.4,4.2L65,65l-0.5-4.2l-22.8,0.9c0,0-0.7-21.1-1.3-21
			C39.8,40.8,38.1,41.4,38.1,41.4z"/>
		<path class="st2" d="M19.2,66.5c-0.1,0-0.2-0.1-0.2-0.1l-0.4-4.2c0,0,0-0.1,0-0.1c0,0,0.1-0.1,0.1-0.1L39.1,62l-1.2-20.6
			c0-0.1,0-0.1,0.1-0.2c0.1,0,1.7-0.6,2.4-0.7c0,0,0.1,0,0.2,0c0.6,0.5,1.2,15.9,1.4,20.9l22.6-0.9c0.1,0,0.2,0.1,0.2,0.1l0.5,4.2
			c0,0,0,0.1,0,0.1c0,0-0.1,0.1-0.1,0.1L19.2,66.5C19.2,66.5,19.2,66.5,19.2,66.5z M19,62.3l0.4,3.8l45.5-1.4L64.4,61l-22.6,0.9
			c0,0-0.1,0-0.1,0c0,0-0.1-0.1-0.1-0.1c-0.3-7.9-0.8-19.7-1.2-20.8c-0.6,0.1-1.7,0.5-2.1,0.6l1.2,20.6c0,0,0,0.1,0,0.1
			c0,0-0.1,0.1-0.1,0.1L19,62.3z"/>
		<path class="st7" d="M24.1,16.8c0,0,11.6-7.3,16.9-3c5.3,4.2,17.5,14.3-2.7,20.8S19.1,20,24.1,16.8z"/>
		<path class="st1" d="M24.5,18.8c0,0-6.5,10.8,3.2,15.1c9.7,4.4,1.6-8.9,8.8-9c7.2-0.1,6.7,9,9.8,3.6c4.4-7.7-7.8-13.7-6-13.9
			c1.8-0.3,3.1-0.8,3.6,0.3c1.6,3.2,20.5,5.9,18.4,16.5C60.3,41.9,53.8,49.5,35.2,50c-18.6,0.6-23.6-11.3-18.8-20.1
			c4.8-8.9,2.3-10.4,3.8-10.6C21.8,19.2,24.5,18.8,24.5,18.8z"/>
		<path class="st2" d="M37.3,27.2c-0.6,0-2.1-1.2-2.7-1.7c-0.1-0.1-0.1-0.2,0-0.2c0.1-0.1,0.2-0.1,0.2,0c0.9,0.8,2.1,1.5,2.4,1.6
			c0-0.5-1-3-2.1-5.1c0-0.1,0-0.2,0.1-0.2c0.1,0,0.2,0,0.2,0.1c0.7,1.5,2.3,5,2.1,5.5C37.4,27.1,37.4,27.2,37.3,27.2
			C37.3,27.2,37.3,27.2,37.3,27.2z"/>
		<path class="st2" d="M38,32.1c-0.1,0-0.2,0-0.4-0.1c-1.5-0.9-3.1-4-3.2-4.1c0-0.1,0-0.2,0.1-0.2c0.1,0,0.2,0,0.2,0.1
			c0,0,1.6,3.1,3,4c0.2,0.1,0.2,0.1,0.3,0c0.6-0.4,0.5-3.4,0.4-5.3c0-0.1,0.1-0.2,0.1-0.2c0.1,0,0.2,0.1,0.2,0.1
			c0.1,0.5,0.5,5-0.5,5.6C38.3,32.1,38.2,32.1,38,32.1z"/>
		<path class="st2" d="M29.1,26.6c-1.9,0-2.9-3.8-2.9-3.9c0-0.1,0-0.2,0.1-0.2c0.1,0,0.2,0,0.2,0.1c0,0,1,3.8,2.7,3.7
			c0.3,0,0.5-0.1,0.6-0.4c0.6-0.9-0.3-3.2-0.4-3.2c0-0.1,0-0.2,0.1-0.2c0.1,0,0.2,0,0.2,0.1c0,0.1,1,2.5,0.3,3.5
			c-0.2,0.3-0.5,0.5-0.9,0.5C29.2,26.6,29.1,26.6,29.1,26.6z"/>
		<path class="st2" d="M40.6,23.7c-0.1,0-0.1,0-0.2,0c-1.7-0.4-2.2-3.6-2.2-3.7c0-0.1,0.1-0.2,0.1-0.2c0.1,0,0.2,0.1,0.2,0.1
			c0,0,0.4,3.1,2,3.4c0.2,0,0.3,0,0.4-0.1c0.4-0.5-0.1-2.6-0.5-3.9c0-0.1,0-0.2,0.1-0.2c0.1,0,0.2,0,0.2,0.1
			c0.1,0.3,1.2,3.4,0.5,4.2C41,23.6,40.8,23.7,40.6,23.7z"/>
		<path class="st8" d="M28,30.3c0.7-0.4,0.9-1.4,0.5-2.1c-0.4-0.7-1.4-0.9-2.1-0.5c-0.7,0.4-0.9,1.4-0.5,2.1
			C26.3,30.5,27.3,30.7,28,30.3z"/>
		<path class="st8" d="M43.7,25c0.8,0,1.5-0.7,1.5-1.5c0-0.8-0.7-1.5-1.5-1.5c-0.8,0-1.5,0.7-1.5,1.5C42.1,24.4,42.8,25,43.7,25z"/>
		<path class="st8" d="M38.1,12.3c0,0-3.7-5.9-9.8-9c-6.1-3.1-15.2,7.5-15.2,7.5l8.1-2.3c0,0-1.5,7.5-0.9,8.3
			C20.9,17.7,38.1,12.3,38.1,12.3z"/>
		<path class="st9" d="M12.3,13c1.2,0,2.2-1,2.2-2.2c0-1.2-1-2.2-2.2-2.2s-2.2,1-2.2,2.2C10.2,12.1,11.1,13,12.3,13z"/>
		<path class="st2" d="M12.3,13.2c-1.3,0-2.3-1-2.3-2.3c0-1.3,1-2.3,2.3-2.3c1.3,0,2.3,1,2.3,2.3C14.6,12.2,13.6,13.2,12.3,13.2z
			 M12.3,8.9c-1.1,0-2,0.9-2,2c0,1.1,0.9,2,2,2c1.1,0,2-0.9,2-2C14.3,9.8,13.4,8.9,12.3,8.9z"/>
		<path class="st9" d="M19.2,16.4c0,0,20.5-7.8,22.2-6c1.7,1.8,2.6,4.5,2.6,4.5s-23.8,7.8-24.3,6.8C19.1,20.6,19.2,16.4,19.2,16.4z"
			/>
		<path class="st2" d="M20,21.9c-0.4,0-0.4-0.1-0.5-0.2c-0.5-1.1-0.4-5.2-0.4-5.3c0-0.1,0-0.1,0.1-0.1c2.1-0.8,20.6-7.8,22.4-6
			c1.7,1.8,2.6,4.4,2.6,4.5c0,0.1,0,0.2-0.1,0.2c-0.1,0-6,2-12,3.8C23.6,21.4,20.9,21.9,20,21.9z M19.8,21.6
			c0.9,0.5,15.1-3.9,24-6.8c-0.2-0.6-1.1-2.8-2.5-4.3c-1.2-1.2-13.7,2.9-21.9,6C19.4,17.2,19.4,20.6,19.8,21.6z"/>
		<path class="st7" d="M20.8,27.6c0.9-0.9,0.9-2.3,0-3.1c-0.9-0.9-2.3-0.9-3.1,0c-0.9,0.9-0.9,2.3,0,3.1
			C18.5,28.5,19.9,28.5,20.8,27.6z"/>
		<path class="st7" d="M48,20c1.2,0,2.2-1,2.2-2.2c0-1.2-1-2.2-2.2-2.2c-1.2,0-2.2,1-2.2,2.2C45.8,19,46.8,20,48,20z"/>
		<path class="st2" d="M19.9,26.9c-0.1,0-0.1-0.1-0.2-0.1c-0.2-1.1-0.5-1.4-0.7-1.5c-0.4-0.1-0.8,0.3-0.8,0.3
			c-0.1,0.1-0.2,0.1-0.2,0c-0.1-0.1-0.1-0.2,0-0.2c0,0,0.5-0.6,1.1-0.4c0.5,0.1,0.8,0.7,0.9,1.8C20.1,26.8,20,26.9,19.9,26.9
			C19.9,26.9,19.9,26.9,19.9,26.9z"/>
		<path class="st2" d="M47.7,19.3c-0.1,0-0.1,0-0.2-0.1c-0.3-1-0.3-1.8,0.1-2.3c0.3-0.4,0.8-0.5,0.9-0.5c0.1,0,0.2,0.1,0.2,0.2
			c0,0.1-0.1,0.2-0.2,0.2c0,0-0.4,0-0.6,0.3c-0.3,0.4-0.3,1.1,0,2C47.9,19.2,47.8,19.3,47.7,19.3C47.7,19.3,47.7,19.3,47.7,19.3z"/>
		<path class="st1" d="M18.7,5.6c0,0,2.1,2.8,4.9,1.7c2.8-1.1,1.8-4,3.6-1.2C29.1,9,33.6,7.1,33.5,7c-0.1-0.1-3.6-4.1-6.7-5
			C23.9,1.1,18.7,5.6,18.7,5.6z"/>
		<path class="st7" d="M18.8,58.2c0,0,3,1.6,2,4.4c-1,2.8-6.6,4.5-5.4,2.9c0.7-1,3.8-2,3.8-2s-4.1,1.3-4.9,0.5
			c-0.4-0.5,3.9-1.2,4-1.2c0.2,0-2.5,0.3-3.1-0.6c-0.6-1,3,0.8,3.5-1.1c0.5-1.8-0.8-1.7-0.8-1.7L18.8,58.2z"/>
		<path class="st2" d="M21.2,55.9c0,0,39.2-2.9,39.2-2.7c0.1,0.2,1,2.7,1,2.7l-40.7,2L21.2,55.9z"/>
		<path class="st10" d="M36.4,53.5l7.3-0.6v5.3l-6.6,0.7L36.4,53.5z"/>
		<path class="st2" d="M38.2,54.7l3.7-0.3V57l-3.3,0.3L38.2,54.7z"/>
		<path class="st2" d="M21.2,8.7c-0.1,0-0.1,0-0.2-0.1c0-0.1,0-0.2,0.1-0.2c1-0.3,3-0.2,3.1-0.2c0.1,0,0.2,0.1,0.2,0.2
			c0,0.1-0.1,0.2-0.2,0.2C24.2,8.6,22.1,8.4,21.2,8.7C21.2,8.7,21.2,8.7,21.2,8.7z"/>
		<path class="st2" d="M36.1,14.5C36.1,14.5,36.1,14.5,36.1,14.5c-0.2-0.1-0.2-0.1-0.1-0.2c0.2-0.4,0.4-0.6,0.7-0.7
			c0.4-0.1,0.7,0.3,0.7,0.3c0.1,0.1,0.1,0.2,0,0.2c-0.1,0.1-0.2,0.1-0.2,0c-0.1-0.1-0.3-0.2-0.5-0.2c-0.2,0-0.3,0.3-0.4,0.5
			C36.2,14.5,36.2,14.5,36.1,14.5z"/>
		<path class="st2" d="M37.9,15.5C37.8,15.5,37.8,15.5,37.9,15.5c-0.2-0.1-0.2-0.1-0.1-0.2c0.2-0.4,0.4-0.6,0.7-0.7
			c0.4-0.1,0.7,0.3,0.7,0.3c0.1,0.1,0.1,0.2,0,0.2c-0.1,0.1-0.2,0.1-0.2,0c-0.1-0.1-0.3-0.2-0.5-0.2c-0.2,0-0.3,0.3-0.4,0.5
			C38,15.5,37.9,15.5,37.9,15.5z"/>
		<path class="st2" d="M34.1,15C34,15,34,15,34.1,15c-0.2-0.1-0.2-0.1-0.1-0.2c0.2-0.4,0.4-0.6,0.7-0.7c0.4-0.1,0.7,0.3,0.7,0.3
			c0.1,0.1,0.1,0.2,0,0.2c-0.1,0.1-0.2,0.1-0.2,0c-0.1-0.1-0.3-0.2-0.5-0.2c-0.2,0-0.3,0.3-0.4,0.5C34.2,15,34.1,15,34.1,15z"/>
		<path class="st2" d="M35.8,15.9C35.8,15.9,35.8,15.9,35.8,15.9c-0.2-0.1-0.2-0.1-0.1-0.2c0.2-0.4,0.4-0.6,0.7-0.7
			c0.4-0.1,0.7,0.3,0.7,0.3c0.1,0.1,0.1,0.2,0,0.2c-0.1,0.1-0.2,0.1-0.2,0c-0.1-0.1-0.3-0.2-0.5-0.2c-0.2,0-0.3,0.3-0.4,0.5
			C35.9,15.9,35.9,15.9,35.8,15.9z"/>
		<path class="st2" d="M33.7,16.6C33.7,16.6,33.6,16.6,33.7,16.6c-0.2-0.1-0.2-0.1-0.1-0.2c0.2-0.4,0.4-0.6,0.7-0.7
			C34.6,15.6,35,16,35,16c0.1,0.1,0.1,0.2,0,0.2c-0.1,0.1-0.2,0.1-0.2,0c-0.1-0.1-0.3-0.2-0.5-0.2c-0.2,0-0.3,0.3-0.4,0.5
			C33.8,16.6,33.7,16.6,33.7,16.6z"/>
		<path class="st9" d="M63.5,36.1l-0.2,1.7l5.7,1.8l0.7-2L63.5,36.1z"/>
		<path class="st2" d="M69,39.8C69,39.8,69,39.8,69,39.8L63.3,38c-0.1,0-0.1-0.1-0.1-0.2l0.2-1.7c0,0,0-0.1,0.1-0.1c0,0,0.1,0,0.1,0
			l6.2,1.6c0,0,0.1,0,0.1,0.1c0,0,0,0.1,0,0.1l-0.7,2C69.2,39.8,69.1,39.8,69,39.8z M63.5,37.7l5.4,1.7l0.6-1.7l-5.9-1.5L63.5,37.7z
			"/>
		<path class="st9" d="M19,55.9l-3.8,4.7l1.5,1.1l4.3-5.1L19,55.9z"/>
		<path class="st2" d="M16.7,61.9C16.7,61.9,16.6,61.9,16.7,61.9l-1.6-1.1c0,0-0.1-0.1-0.1-0.1c0,0,0-0.1,0-0.1l3.8-4.7
			c0-0.1,0.1-0.1,0.2-0.1l2,0.7c0.1,0,0.1,0.1,0.1,0.1c0,0.1,0,0.1,0,0.1l-4.3,5.1C16.8,61.9,16.8,61.9,16.7,61.9z M15.4,60.6
			l1.3,0.9l4.1-4.8l-1.7-0.6L15.4,60.6z"/>
		<path class="st2" d="M35,48.9c-0.2,0-0.5,0-0.7-0.1c-1.5-0.3-2.4-0.8-3.1-1.5c0,0,0,0,0,0c-0.5,0.6-1.7,1.5-3.7,0.9
			c-1.9-0.6-2.7-1.6-3-2.5c-0.4,0.5-0.9,0.9-1.4,1.1c-0.6,0.2-1.5,0.2-2.3-0.9c-0.9-1.2-1.1-2.1-1-2.8c-0.2,0-0.5,0-0.7,0
			c-1-0.1-1.7-0.6-2.1-1.4c-0.6-1.4-0.1-2.7,0.6-3.6c-0.5-0.3-1-0.9-1.1-1.9c-0.2-1.4,0.6-2.5,1.4-3.3c-0.4-0.3-0.7-0.7-0.9-1.2
			c-0.2-0.6-0.2-1.2,0.1-1.6c0.4-0.8,1.4-0.9,1.4-0.9c0.1,0,0.2,0,0.2,0.1c0,0.1,0,0.2-0.1,0.2c0,0-0.8,0.2-1.2,0.8
			c-0.2,0.4-0.2,0.8,0,1.4c0.2,0.6,0.5,0.9,0.8,1.1c0.4-0.3,0.8-0.5,1.1-0.6c0.6-0.2,0.8,0.1,0.8,0.2c0.1,0.2,0.1,0.5-0.1,0.7
			c-0.2,0.3-0.7,0.4-1.2,0.3c-0.2,0-0.4-0.1-0.6-0.2c-0.8,0.7-1.5,1.8-1.4,3c0.1,1,0.6,1.5,1,1.7c0.2-0.2,0.4-0.4,0.6-0.5
			c0.5-0.2,0.9-0.2,1.1,0.2c0.2,0.3,0.1,0.5,0,0.6c-0.2,0.3-0.8,0.4-1.3,0.2c-0.1,0-0.2-0.1-0.3-0.1c-0.6,0.8-1.1,2-0.6,3.3
			c0.4,1,1.2,1.2,1.8,1.2c0.2,0,0.5,0,0.7,0c0-0.2,0.1-0.3,0.1-0.4c0.3-0.6,0.8-1,1.2-1.1c0.2,0,0.4,0.1,0.5,0.2
			c0.1,0.2,0.1,0.4,0,0.6c-0.2,0.4-0.8,0.8-1.6,0.9c-0.1,0.6,0,1.5,0.9,2.7c0.5,0.6,1,0.9,1.6,0.9c0.7-0.1,1.3-0.7,1.8-1.3
			c-0.1-0.5-0.1-0.9,0-1.3c0.2-0.5,0.5-0.9,0.8-0.8c0.1,0,0.2,0.1,0.3,0.4c0,0.4-0.3,1.1-0.7,1.8c0.2,0.9,1,2,2.9,2.6
			c1.9,0.6,2.9-0.2,3.4-0.8c0,0,0,0,0.1-0.1c-0.5-0.6-0.6-1.2-0.6-1.7c0-0.6,0.3-1,0.8-1c0.3,0,0.5,0.1,0.6,0.4
			c0.3,0.5,0.1,1.5-0.4,2.4c0.6,0.6,1.5,1.2,2.9,1.5c2.1,0.4,3.3-1,3.7-1.7c0.1-0.2,0.2-0.4,0.3-0.5c-0.4-0.7-0.7-1.3-0.5-1.7
			c0.1-0.2,0.3-0.4,0.5-0.4c0.2,0,0.4,0.1,0.6,0.3c0.2,0.4,0.2,1.1-0.2,1.8c0.1,0.1,0.2,0.3,0.3,0.4c0.5,0.6,2,1.8,3.9,1.3
			c1.8-0.5,2.6-2,2.9-3.3c-0.7-0.5-1.2-1.1-1.3-1.5c-0.1-0.4,0.1-0.7,0.5-0.8c0.5-0.1,0.9,0.2,1,0.8c0.1,0.4,0.1,0.8,0,1.3
			c0.9,0.6,2.1,1,3.6,0.8c1.2-0.2,1.7-1.3,2-2.2c0.1-0.6,0.2-1.2,0.2-1.8c-0.8-0.6-1.5-1.4-1.6-1.9c-0.1-0.4,0.1-0.6,0.2-0.6
			c0.3-0.2,0.6-0.2,0.8,0c0.5,0.3,0.8,1.3,0.9,2.4c0.5,0.3,1,0.6,1.6,0.7c1.1,0.2,2-0.2,2.6-1.2c1.1-1.7,0.6-3,0.1-3.7
			c-0.4,0-0.7,0-1-0.1c-0.6-0.2-0.9-0.5-1-1c0-0.2,0.1-0.3,0.2-0.4c0.4-0.2,1.2,0.3,1.8,1c0,0.1,0.1,0.1,0.1,0.2
			c0.9-0.1,2-0.5,2.8-1.5c1.1-1.3,0.5-3.1-0.4-4.2c-0.3,0.2-0.5,0.2-0.7,0.2c-0.5,0-1-0.2-1.2-0.6c-0.1-0.3,0-0.5,0.2-0.7
			c0.3-0.3,0.9-0.1,1.5,0.5c0.1,0.1,0.1,0.1,0.2,0.2c0.4-0.3,0.7-0.8,0.9-1.5c0.6-1.8-0.6-3.2-1.8-3.7c-0.1,0.4-0.3,0.6-0.5,0.7
			c-0.5,0.4-1.1,0.5-1.5,0.3c-0.1-0.1-0.4-0.4-0.2-0.9c0.3-0.6,1-0.8,1.9-0.5c0-0.4-0.1-0.7-0.3-1.2c-0.8-1.4-2-1.8-3-1.8
			c0,0.1,0,0.2-0.1,0.4c-0.2,0.6-0.6,1-1,1c-0.2,0-0.4-0.1-0.5-0.4c-0.2-0.4,0.1-0.8,0.6-1c0.2-0.1,0.5-0.2,0.7-0.2
			c0-0.4-0.2-0.8-0.8-1.3c-1.8-1.4-3.5,0.2-3.6,0.3c-0.1,0.1-0.2,0.1-0.2,0c-0.1-0.1-0.1-0.2,0-0.2c0,0,2-1.9,4-0.3
			c0.5,0.4,0.8,1,0.9,1.5c1.1,0,2.5,0.5,3.2,2c0.3,0.6,0.4,1.1,0.4,1.5c1.3,0.6,2.7,2.2,2,4.2c-0.3,0.8-0.6,1.3-1,1.6
			c0.9,1.1,1.7,3.1,0.4,4.6c-0.9,1-1.9,1.5-2.9,1.6c0.5,0.8,0.9,2.2-0.2,3.9c-0.9,1.4-2.1,1.5-2.9,1.4c-0.5-0.1-1.1-0.3-1.5-0.6
			c0,0.6,0,1.1-0.2,1.7c-0.3,1.4-1.1,2.3-2.2,2.4c-1.4,0.2-2.7-0.2-3.7-0.8c-0.3,1.4-1.2,2.9-3.1,3.4c-2.1,0.6-3.7-0.8-4.3-1.4
			c-0.1-0.1-0.2-0.2-0.3-0.3c-0.1,0.1-0.2,0.3-0.3,0.4C37.9,47.6,36.8,48.9,35,48.9z M31.2,44.6C31.2,44.6,31.2,44.6,31.2,44.6
			c-0.4,0-0.6,0.3-0.6,0.7c0,0.4,0.1,0.9,0.5,1.4c0.4-0.7,0.6-1.6,0.3-2C31.4,44.7,31.3,44.6,31.2,44.6z M38.4,44.5
			C38.4,44.5,38.4,44.5,38.4,44.5c-0.2,0-0.2,0.1-0.3,0.2c-0.1,0.2,0,0.7,0.4,1.3c0.2-0.6,0.3-1.1,0.1-1.3
			C38.6,44.5,38.5,44.5,38.4,44.5z M25,43.5c-0.1,0-0.3,0.2-0.4,0.6c-0.1,0.2-0.1,0.5-0.1,0.8c0.1-0.2,0.2-0.4,0.3-0.6
			C25.1,43.7,25.1,43.5,25,43.5C25,43.5,25,43.5,25,43.5z M45.3,42.6c0,0-0.1,0-0.1,0c-0.2,0.1-0.3,0.2-0.3,0.4
			c0.1,0.3,0.4,0.8,1,1.2c0-0.4,0-0.8-0.1-1C45.8,43,45.6,42.6,45.3,42.6z M21.1,41.5C21.1,41.5,21.1,41.5,21.1,41.5
			c-0.3,0-0.7,0.3-1,0.9c0,0.1-0.1,0.1-0.1,0.2c0.6-0.2,1.1-0.5,1.2-0.7c0.1-0.1,0-0.2,0-0.3C21.3,41.6,21.3,41.5,21.1,41.5z
			 M50.9,39c-0.1,0-0.2,0-0.2,0.1c0,0-0.1,0.1-0.1,0.3c0.1,0.4,0.6,1,1.2,1.5c-0.1-0.9-0.4-1.6-0.7-1.8C51.1,39,51,39,50.9,39z
			 M18,37.9c0.1,0,0.1,0,0.2,0.1c0.5,0.1,0.9,0,1-0.1c0,0,0.1-0.1,0-0.3c-0.1-0.2-0.5-0.1-0.6,0C18.3,37.7,18.1,37.8,18,37.9z
			 M54.9,35.7C54.9,35.7,54.9,35.7,54.9,35.7C54.8,35.7,54.8,35.8,54.9,35.7c-0.1,0.3,0.2,0.6,0.6,0.7c0.2,0.1,0.4,0.1,0.7,0.1
			C55.7,36,55.2,35.7,54.9,35.7z M18.3,32.8c0.2,0.1,0.3,0.1,0.4,0.1c0.4,0.1,0.8,0,0.9-0.2c0.1-0.1,0.1-0.2,0-0.3
			c-0.1-0.1-0.4-0.1-0.5-0.1C18.9,32.4,18.6,32.6,18.3,32.8z M57.8,30c-0.1,0-0.1,0-0.2,0.1c-0.1,0.1-0.1,0.2-0.1,0.3
			c0.1,0.2,0.4,0.4,0.8,0.4c0.2,0,0.3-0.1,0.5-0.1c0-0.1-0.1-0.1-0.1-0.1C58.4,30.2,58,30,57.8,30z M57.2,25c-0.4,0-0.7,0.1-0.8,0.5
			c-0.1,0.2-0.1,0.4,0,0.5c0.2,0.2,0.7,0.1,1.1-0.2c0.2-0.2,0.3-0.4,0.4-0.6C57.7,25,57.4,25,57.2,25z M54.3,21.8
			c-0.2,0-0.4,0.1-0.6,0.2c-0.2,0.1-0.5,0.3-0.4,0.6c0.1,0.2,0.2,0.2,0.2,0.2c0.2,0,0.5-0.3,0.7-0.8C54.3,22,54.3,21.9,54.3,21.8z"
			/>
		<path class="st9" d="M34.7,71.8l5.5-0.4L40,73l-4.6,0.4L34.7,71.8z"/>
		<path class="st2" d="M40.3,71.3c0,0-0.1-0.1-0.1,0l-5.5,0.4c-0.1,0-0.1,0-0.1,0.1c0,0,0,0.1,0,0.2l0.7,1.5c0,0.1,0.1,0.1,0.1,0.1
			c0,0,0,0,0,0l1-0.1c0.2,1.7-6,2-2.1,2.8c3.6,0.7,3.7-1.9,3.7-2.7l0.2,2.1l1.3-0.4l-0.4-2l0.9-0.1c0.1,0,0.1-0.1,0.2-0.1l0.2-1.6
			C40.4,71.4,40.4,71.3,40.3,71.3z M39.9,72.8l-4.4,0.3L34.9,72l5.1-0.4L39.9,72.8z"/>
		<path class="st9" d="M42.2,70.9l5.6,0.2l-0.4,1.6L42.2,73V70.9z"/>
		<path class="st2" d="M46.2,73l1.2,0c0.1,0,0.1-0.1,0.2-0.1l0.4-1.6c0,0,0-0.1,0-0.1c0,0-0.1-0.1-0.1-0.1l-5.6-0.2c0,0-0.1,0-0.1,0
			c0,0-0.1,0.1-0.1,0.1v2c0,0,0,0.1,0.1,0.1c0,0,0.1,0,0.1,0c0,0,0,0,0,0l1.2,0l-0.3,2.1l1.3,0.4l0.2-2.1c0,0.7,0.1,3.4,3.7,2.7
			C52.2,75.4,45.8,75,46.2,73z M42.4,71.1l5.2,0.2l-0.3,1.3l-4.9,0.2V71.1z"/>
	</g>
</g>
</svg>
