<?xml version="1.0" encoding="utf-8"?>
<!-- Generator: Adobe Illustrator 26.0.2, SVG Export Plug-In . SVG Version: 6.00 Build 0)  -->
<svg version="1.1"
	 id="svg1" xmlns:inkscape="http://www.inkscape.org/namespaces/inkscape" xmlns:sodipodi="http://sodipodi.sourceforge.net/DTD/sodipodi-0.dtd" xmlns:svg="http://www.w3.org/2000/svg"
	 xmlns="http://www.w3.org/2000/svg" xmlns:xlink="http://www.w3.org/1999/xlink" x="0px" y="0px" viewBox="0 0 22 24"
	 style="enable-background:new 0 0 22 24;" xml:space="preserve">
<style type="text/css">
	.st0{fill:#FF4646;}
</style>
<sodipodi:namedview  bordercolor="#000000" borderopacity="0.25" id="namedview1" inkscape:current-layer="svg1" inkscape:cx="9.9953738" inkscape:cy="13.518923" inkscape:deskcolor="#d1d1d1" inkscape:pagecheckerboard="0" inkscape:pageopacity="0.0" inkscape:showpageshadow="2" inkscape:window-height="1097" inkscape:window-maximized="1" inkscape:window-width="1800" inkscape:window-x="0" inkscape:window-y="497" inkscape:zoom="27.812867" pagecolor="#ffffff">
	</sodipodi:namedview>
<path id="path1" class="st0" d="M17.3,14.8l-0.8-0.5l2.2-0.6l-0.4-1.4l-3.6,1l-1.7-1c0-0.1,0-0.3,0-0.4c0-0.1,0-0.3,0-0.4l1.7-1
	l3.6,1l0.4-1.4l-2.2-0.6l0.8-0.5L20.8,9L21.3,6l-2.8-1L16.6,8l-0.8,0.5l0.6-2.2L15,5.9l-1,3.6l-1.7,1c-0.2-0.2-0.4-0.3-0.7-0.4V8.1
	l2.6-2.6l-1-1l-1.6,1.6V5.1L13.3,2L11,0L8.7,2l1.6,3.1v0.9L8.7,4.5l-1,1l2.6,2.6V10c-0.2,0.1-0.5,0.2-0.7,0.4L8,9.4L7,5.9L5.6,6.2
	l0.6,2.2L5.4,8L3.5,5L0.7,6L1.2,9l3.5,0.2l0.8,0.5l-2.2,0.6l0.4,1.4l3.6-1l1.7,1c0,0.1,0,0.3,0,0.4c0,0.1,0,0.3,0,0.4l-1.7,1l-3.6-1
	l-0.4,1.4l2.2,0.6l-0.8,0.5L1.2,15L0.7,18l2.8,1L5.4,16l0.8-0.5l-0.6,2.2L7,18.1l1-3.6l1.7-1c0.2,0.2,0.4,0.3,0.7,0.4v1.9l-2.6,2.6
	l1,1l1.6-1.6v0.9L8.7,22l2.3,2l2.3-2l-1.6-3.1v-0.9l1.6,1.6l1-1l-2.6-2.6V14c0.2-0.1,0.5-0.2,0.7-0.4l1.7,1l1,3.6l1.4-0.4l-0.6-2.2
	l0.8,0.5l1.9,2.9l2.8-1L20.8,15L17.3,14.8z"/>
</svg>
