<?xml version="1.0" encoding="utf-8"?>
<!-- Generator: Adobe Illustrator 26.0.2, SVG Export Plug-In . SVG Version: 6.00 Build 0)  -->
<svg version="1.1" id="Layer_1" xmlns="http://www.w3.org/2000/svg" xmlns:xlink="http://www.w3.org/1999/xlink" x="0px" y="0px"
	 viewBox="0 0 16 16" style="enable-background:new 0 0 16 16;" xml:space="preserve">
<path d="M12.6,2.5H3C2.7,2.5,2.5,2.7,2.5,3v10c0,0.3,0.2,0.5,0.5,0.5h10c0.3,0,0.5-0.2,0.5-0.5V3.9c0-0.3,0.2-0.5,0.5-0.5
	s0.5,0.2,0.5,0.5V13c0,0.8-0.7,1.5-1.5,1.5H3c-0.8,0-1.5-0.7-1.5-1.5V3c0-0.8,0.7-1.5,1.5-1.5h9.6V2.5z"/>
<path d="M3.4,13.5H13c0.3,0,0.5-0.2,0.5-0.5V3c0-0.3-0.2-0.5-0.5-0.5H3C2.7,2.5,2.5,2.7,2.5,3v9.1c0,0.3-0.2,0.5-0.5,0.5
	s-0.5-0.2-0.5-0.5V3c0-0.8,0.7-1.5,1.5-1.5h10c0.8,0,1.5,0.7,1.5,1.5v10c0,0.8-0.7,1.5-1.5,1.5H3.4V13.5z"/>
</svg>
